<svg id="Component_76_1" data-name="Component 76 – 1" xmlns="http://www.w3.org/2000/svg" width="6364.012" height="4883.129" viewBox="0 0 6364.012 4883.129">
  <ellipse id="Ellipse_14" data-name="Ellipse 14" cx="1110.108" cy="210.296" rx="1110.108" ry="210.296" transform="translate(1122.3 4462.537)" fill="#1f1f1f" opacity="0.1"/>
  <path id="Path_5" data-name="Path 5" d="M3792.775,757.261C3384.79,743.14,2996.22,611.39,2625.176,467.284S1886.616,163.564,1488.4,87.225c-256.125-49.107-549.065-56.1-755.39,81.068C534.378,300.673,470.2,528.557,435.723,740.177c-25.972,159.235-41.227,326.855,29.88,475.941,49.422,103.509,137.046,190.5,197.689,289.662,210.99,344.947,61.841,770.33-166.737,1107.145C389.389,2770.9,264.888,2921.813,182.119,3089.811s-121.034,361.147-48.6,532.99c71.738,170.2,242.761,297.794,428.031,387.623,376.277,182.5,819.5,234.692,1252.007,264.32,957.113,65.434,1919.27,37.13,2878.905,8.7,355.158-10.464,711.83-21.118,1061.189-76.024,194.032-30.511,394.306-78.924,535.2-195.8,178.777-148.33,223.094-399.475,103.258-585.438-200.967-312.041-756.462-389.515-897.1-724.312-77.285-184.324,2.08-389.578,114.478-560.475,241.059-366.695,645.072-688.38,666.316-1107.46C6290.421,746.1,6096.2,457.828,5795.885,321.6c-314.751-142.782-751.293-124.816-983.4,111.515C4573.254,676.193,4153.039,769.806,3792.775,757.261Z" transform="translate(-95.226 -55.033)" fill="#ebac01"/>
  <path id="Path_7" data-name="Path 7" d="M969.927,655.938c-63.038,90.208-289.662,42.425-289.662,42.425L504.64,534.022,481,511.769l39.651-84.219s12.608,3.467,34.23,9.645C668.414,470.164,1023.131,580.1,969.927,655.938Z" transform="translate(1950.861 1920.739)" fill="#efb7b9"/>
  <path id="Path_8" data-name="Path 8" d="M554.755,437.195c-7.754,26.98-29,67.388-50.115,96.827L481,511.769l39.651-84.219S533.385,431.017,554.755,437.195Z" transform="translate(1950.861 1920.739)" opacity="0.1"/>
  <path id="Path_9" data-name="Path 9" d="M526.908,280.649s-161.883,71.8-153.94,248.12a2906.992,2906.992,0,0,0,37.067,338.9s-33.1,265.328,104.707,333.725,265.329,124.627,265.329,124.627,215.592,23.2,242.383,32.78,110.507-136.92,95.062-159.74-213.322-70.667-238.537-108.742-83.526-61.588-83.526-61.588-60.2-36.436-64.3-69.342,11.788-57.428,15.823-71.864,14.247-153.814,14.247-153.814S829.178,237.593,526.908,280.649Z" transform="translate(1376.376 1127.547)" fill="#dce6f2"/>
  <path id="Path_10" data-name="Path 10" d="M584.1,370.39S362.017,407.583,383.513,485.309C383.513,485.309,464.14,401.4,584.1,370.39Z" transform="translate(1426.032 1617.571)" opacity="0.1"/>
  <path id="Path_11" data-name="Path 11" d="M499.611,375.38S377.506,475.044,401.4,480.15,499.611,375.38,499.611,375.38Z" transform="translate(1512.224 1644.037)" opacity="0.1"/>
  <path id="Path_12" data-name="Path 12" d="M439.786,380.89s-32.717,67.01-12.608,62.471S439.786,380.89,439.786,380.89Z" transform="translate(1630.738 1673.261)" opacity="0.1"/>
  <path id="Path_13" data-name="Path 13" d="M1130.59,1231.57l-13.49-3.845c3.845-12.608,4.917-22.82,1.765-27.548-15.445-22.82-213.2-70.6-238.348-108.741s-83.526-61.588-83.526-61.588-60.2-36.436-64.3-69.343,11.788-57.428,15.823-71.864,14.247-153.877,14.247-153.877,67.766-496.05-234.5-452.995c0,0-161.883,71.864-154,248.182a2898.962,2898.962,0,0,0,37.13,338.9s-33.1,265.328,104.707,333.725S781.42,1327.2,781.42,1327.2s215.529,23.135,242.383,32.78c10.149,3.656,28.493-15.192,46.459-41.1l10.212,9.519L1256.1,1492.676s226.624,47.846,289.662-42.362C1599.029,1374.415,1244.375,1264.476,1130.59,1231.57Z" transform="translate(1383.221 1133.487)" opacity="0.1"/>
  <path id="Path_14" data-name="Path 14" d="M414.3,203.944a53.582,53.582,0,0,0-17.462,6.745c-6.3,5.232-6.3,14.184-7.88,22a72.373,72.373,0,0,1-12.608,30.132,45.323,45.323,0,0,0,20.992-3.467,108.035,108.035,0,0,1-6.3,25.215,20.424,20.424,0,0,0,18.912-11.536,121.413,121.413,0,0,0,7.88-22.126,18.222,18.222,0,0,1,3.026-6.3c5.8-6.871,16.579-3.782,25.531-2.9A41.921,41.921,0,0,0,484.713,223.3c9.519-14.436,10.086-51.376-12.608-55.285C448.4,164.1,433.652,196.758,414.3,203.944Z" transform="translate(1395.813 542.473)" fill="#965d7b"/>
  <g id="Group_1" data-name="Group 1" transform="translate(1773.109 751.524)" opacity="0.1">
    <path id="Path_15" data-name="Path 15" d="M387.88,183.643c.567-3.089.946-6.3,1.639-9.393h0c-5.989,5.232-6.3,14.121-7.88,22a69.325,69.325,0,0,1-3.719,13.3,72.234,72.234,0,0,0,9.96-25.909Z" transform="translate(-368.968 -174.25)"/>
    <path id="Path_16" data-name="Path 16" d="M397.429,205.215a104.829,104.829,0,0,0,6.3-25.215,45.133,45.133,0,0,1-19.983,3.467,72.933,72.933,0,0,1-7.249,12.607,44.883,44.883,0,0,0,20.928-3.4,104.809,104.809,0,0,1-6.3,25.215,20.487,20.487,0,0,0,18.912-11.536,47.052,47.052,0,0,0,3.782-9.015,18.912,18.912,0,0,1-16.39,7.88Z" transform="translate(-376.5 -143.753)"/>
    <path id="Path_17" data-name="Path 17" d="M413.953,190.195c-8.952-.883-19.794-3.971-25.594,2.9a19.48,19.48,0,0,0-3.026,6.3c-.567,1.639-1.072,3.341-1.513,5.043,5.989-4.728,15.7-2.206,23.829-1.387a42.11,42.11,0,0,0,38.327-18.407,34.928,34.928,0,0,0,4.224-9.9,41.984,41.984,0,0,1-36.247,15.445Z" transform="translate(-337.676 -171.598)"/>
  </g>
  <path id="Path_18" data-name="Path 18" d="M344.661,201l96.134,115.613L428.25,433.3,312.07,251.431Z" transform="translate(1655.198 1066.052)" fill="#dce6f2"/>
  <path id="Path_19" data-name="Path 19" d="M440.732,316.613l-11.789,109.75-.756,6.934L323.354,269.145,312.07,251.431l3.278-5.106L344.6,201l6.493,7.817Z" transform="translate(1655.198 1066.052)" opacity="0.1"/>
  <path id="Path_20" data-name="Path 20" d="M770.677,374.139c-32.528,9.33-63.606,41.353-90.649,80.248a684.869,684.869,0,0,0-48.918,84.093c-8.888,17.777-16.7,34.861-23.2,49.738l-4.539,10.59c-10.969,25.909-17.083,43.244-17.083,43.244s-249-187.224-209.6-199.832c13.238-4.224,30.637-32.591,47.846-68.334l2.143-4.539c10.906-22.946,21.622-48.54,31.141-72.62,19.479-49.485,33.915-92.477,33.915-92.477S869.963,345.771,770.677,374.139Z" transform="translate(1375.178 736.389)" fill="#efb7b9"/>
  <path id="Path_21" data-name="Path 21" d="M459.26,202.58s57.491,104.014,134.713,89.83,45.451-55.852,45.451-55.852Z" transform="translate(1835.555 727.532)" fill="#444053"/>
  <path id="Path_22" data-name="Path 22" d="M831.209,980.262c-50.935,23.261-166.106,0-166.106,0l-48.54-3.025C553.525,973.2,448,966.394,410.68,963.368c-54.466-4.476-41.1-26.792-41.1-26.792V801.737L633.836,734.79s104.455,35.743,133.074,66.947c27.17,29.754,43.055,6.872,91.532,15.444,2.4.441,4.917.946,7.565,1.576,46.018,10.527,70.981,14.688,85.732,52.826a177.124,177.124,0,0,1,7.123,24.585C972.479,957.568,882.082,957.127,831.209,980.262Z" transform="translate(1352.217 3550.293)" fill="#a36468"/>
  <path id="Path_23" data-name="Path 23" d="M951.739,802.262a197.5,197.5,0,0,1-29.754,15.256C887.314,833.34,854.344,852.63,819.3,867.57s-72.809,25.593-110.759,22.757c-19.857-1.45-40.156-6.3-59.13-.63a136.537,136.537,0,0,0-32.843,18.218C553.525,903.88,448,897.072,410.68,894.046c-54.466-4.476-41.1-26.792-41.1-26.792V851.5c1.954,0,4.16-.568,6.682-.757a119.021,119.021,0,0,1,38.454,5.736c27.359,7.438,54.591,14.751,81.95,22.063a64.743,64.743,0,0,1,31.519-40.218,100.478,100.478,0,0,1,50.809-11.662c42.425.567,82.58,20.676,124.942,22.693a68.842,68.842,0,0,0,34.608-5.8c5.8-2.9,10.906-7.124,16.579-10.339a121,121,0,0,1,28.556-9.645,628.915,628.915,0,0,0,81.635-26.35c7.564-2.962,16.39-8.321,15.381-16.39-1.324-10.717-18.155-11.978-22.568-21.812a12.61,12.61,0,0,1,.5-11.158c2.4.441,4.917.946,7.565,1.576C912.025,759.964,936.988,764.124,951.739,802.262Z" transform="translate(1352.217 3619.615)" opacity="0.1"/>
  <path id="Path_24" data-name="Path 24" d="M891.417,1063.605c-59.886,27.359-195.419,0-195.419,0l-57.05-3.341c-73.881-4.728-198.319-12.607-242.257-16.327-64.11-5.3-48.351-31.519-48.351-31.519V853.5l310.969-78.8S782.234,816.747,815.9,853.5c31.961,34.986,50.431,8.069,107.733,18.155,2.837.5,5.8,1.135,8.888,1.828,54.15,12.607,83.526,17.335,100.862,62.219a202.34,202.34,0,0,1,8.384,28.935C1057.4,1036.877,951.3,1036.31,891.417,1063.605Z" transform="translate(1238.175 3761.969)" fill="#a36468"/>
  <path id="Path_25" data-name="Path 25" d="M1033.254,853.862a234.654,234.654,0,0,1-34.986,17.966c-40.786,18.6-79.618,41.29-120.845,58.878s-85.669,30.07-130.364,26.792c-23.324-1.7-47.216-7.564-69.342-.756a160.763,160.763,0,0,0-38.769,21.685C565.067,973.7,440.629,965.818,396.691,962.1c-64.11-5.3-48.351-31.519-48.351-31.519V912.046a78.889,78.889,0,0,1,7.88-.883,138.324,138.324,0,0,1,45.262,6.745l96.386,25.973a76.276,76.276,0,0,1,37.382-47.342A117.631,117.631,0,0,1,595.073,882.8c49.927.693,97.142,24.332,147.006,26.728a81.387,81.387,0,0,0,40.6-6.745c6.871-3.467,12.608-8.447,19.542-12.167a137.1,137.1,0,0,1,33.6-11.346,754.624,754.624,0,0,0,95.566-31.016c8.888-3.529,19.29-9.833,18.092-19.289-1.576-12.607-21.37-14.121-26.6-25.72a15.193,15.193,0,0,1,.63-13.112c2.837.5,5.8,1.135,8.889,1.828C986.542,804.062,1015.918,808.979,1033.254,853.862Z" transform="translate(1238.175 3843.808)" opacity="0.1"/>
  <path id="Path_26" data-name="Path 26" d="M585.357,647.54l-16.831,396.071s-25.216,80.878-11.536,104.014,36.751,46.207,28.367,59.886S476.111,1369.079,443.52,1312.344s-64.74-302.585-64.74-302.585L408.849,706.1Z" transform="translate(1408.702 3087.532)" fill="#444053"/>
  <path id="Path_27" data-name="Path 27" d="M502.688,491l46.774,62.534v543.9s13.679,144.989,0,174.932-83.022,89.83-83.022,89.83L408.13,1062.759l12.608-316.769Z" transform="translate(1564.37 2257.268)" fill="#444053"/>
  <path id="Path_28" data-name="Path 28" d="M585.357,647.54l-16.831,396.071s-25.216,80.878-11.536,104.014,36.751,46.207,28.367,59.886S476.111,1369.079,443.52,1312.344s-64.74-302.585-64.74-302.585L408.849,706.1Z" transform="translate(1408.702 3087.532)" fill="#1f1f1f" opacity="0.8"/>
  <path id="Path_29" data-name="Path 29" d="M502.688,491l46.774,62.534v543.9s13.679,144.989,0,174.932-83.022,89.83-83.022,89.83L408.13,1062.759l12.608-316.769Z" transform="translate(1564.37 2257.268)" fill="#1f1f1f" opacity="0.8"/>
  <path id="Path_30" data-name="Path 30" d="M979.762,581.492v294.2l-52.511,229.019s-16.831,552.658-2.143,619.857-50.431,130.3-50.431,130.3-37.823,4.224-37.823,33.6-63.039,113.469-63.039,113.469l2.08,163.9s27.359,306.808-14.688,365.623,14.688,67.262,14.688,67.262C723.384,2771.008,471.23,2731.1,448.474,2712.193s0-390.839,0-390.839,56.356-567.346,100.483-592.562,2.143-56.735,16.832-94.558S551.1,1493.47,551.1,1493.47s-12.608-121.917-44.127-180.731S479.615,1092.1,479.615,1092.1,391.361,974.411,365.137,928.2s-43.118-165.98-36.814-256.377c4.287-61.084,36.373-150.031,56.735-201.219,9.771-24.522,16.831-40.408,16.831-40.408l5.989,1.576,344.316,90.145Z" transform="translate(1134.07 1934.794)" fill="#1f1f1f"/>
  <path id="Path_31" data-name="Path 31" d="M698.913,374.51c-32.528,9.33-63.606,41.353-90.649,80.248H601.2A225.174,225.174,0,0,1,405.784,341.73a221.756,221.756,0,0,1-19.794-45.072C405.469,247.172,419.9,204.18,419.9,204.18S798.2,346.143,698.913,374.51Z" transform="translate(1446.942 736.018)" opacity="0.1"/>
  <path id="Path_32" data-name="Path 32" d="M835.107,395.956a225.363,225.363,0,1,1-421.6-110.444,220.208,220.208,0,0,1,23.829-34.419,228.07,228.07,0,0,1,51.817-45.514,225.362,225.362,0,0,1,345.64,173.86C834.918,384.987,835.107,390.471,835.107,395.956Z" transform="translate(1438.401 556.976)" fill="#efb7b9"/>
  <path id="Path_33" data-name="Path 33" d="M708.962,617.118l-.756,6.934-104.833-163.9C592.4,486.061,586.289,503.4,586.289,503.4s-249-187.476-209.6-200.084c13.238-4.224,30.637-32.591,47.846-68.334l2.143-4.539c18.281,54.465,124.5,163.333,168.691,206.955,5.106,5.043,9.33,9.2,12.608,12.229l6.745,6.3,3.53,3.53C634.325,476.038,702.154,549.163,708.962,617.118Z" transform="translate(1375.178 875.297)" opacity="0.1"/>
  <path id="Path_34" data-name="Path 34" d="M1062.974,1174.785,1051.5,1544l-2.017,65.749s-135.911-12.608-262.744-26.476c-102.122-11.158-198.382-23.2-213.2-30.259-18.911-8.888-59.445-15.76-91.406-20.109-24.711-3.341-44.127-5.106-44.127-5.106s-7.249,2.143-18.407,4.161c-24.333,4.413-67.073,8.006-91.973-13.616-31.834-27.674,51.818-128.22,72.683-152.364l4.6-5.232-7.88-72.809-20.487-188.8S363.941,990.4,345.029,932.087a308.13,308.13,0,0,1-10.906-50.746,406.467,406.467,0,0,1,10.591-159.235,347.236,347.236,0,0,0,11.347-67.389c3.152-58.31,181.236-283.673,225.363-304.161a93.549,93.549,0,0,0,45.136-45.009,85.982,85.982,0,0,0,6.871-19.6c18.912-81.95,66.758-49.422,66.758-49.422,11.536,64.11,190.124,233.81,190.124,233.81l3.53,3.53c17.714,18.155,96.638,103.383,91.028,176.13a213.513,213.513,0,0,0,11.914,79.681,1347.454,1347.454,0,0,1,62.093,353.015Z" transform="translate(1099.523 873.756)" fill="#dce6f2"/>
  <path id="Path_35" data-name="Path 35" d="M467.782,310.45s-44.127,107.165-77.222,124.5S483.541,471.513,467.782,310.45Z" transform="translate(1441.679 1299.658)" opacity="0.1"/>
  <path id="Path_36" data-name="Path 36" d="M488.241,342.2S387.38,354.808,387.38,373.719,488.241,342.2,488.241,342.2Z" transform="translate(1454.315 1468.055)" opacity="0.1"/>
  <path id="Path_37" data-name="Path 37" d="M582.058,361.7S435.493,673.74,394.518,683.2,582.058,361.7,582.058,361.7Z" transform="translate(1466.089 1571.48)" opacity="0.1"/>
  <path id="Path_38" data-name="Path 38" d="M635.536,475.81l-121.223,52.7L368,307.5a85.985,85.985,0,0,0,6.871-19.6c18.912-81.95,66.758-49.422,66.758-49.422,11.536,64.11,190.124,233.81,190.124,233.81Z" transform="translate(1351.526 884.098)" opacity="0.1"/>
  <path id="Path_39" data-name="Path 39" d="M636.535,473.81l-121.223,52.7L369,305.5a86,86,0,0,0,6.871-19.6c18.912-81.95,66.758-49.422,66.758-49.422,11.536,64.11,190.124,233.81,190.124,233.81Z" transform="translate(1356.83 873.491)" fill="#dce6f2"/>
  <path id="Path_40" data-name="Path 40" d="M994.374,1282.593s-135.911-12.608-262.744-26.476L959.2,1315.688v69.343c-9.96,9.014-18.6,13.679-24.207,11.284-26.224-11.032-240.24-45.7-240.24-45.7s-124.312-63.039-258.458-138.685a103.691,103.691,0,0,1-9.456-5.926,149.023,149.023,0,0,1-39.714-39.777c-24.774-35.869-36.877-81.95-42.11-127.149a549.844,549.844,0,0,1-3.278-78.042,639.905,639.905,0,0,1,8.068-88.191,2900.106,2900.106,0,0,1-18.912-340.408c1.576-176.507,167.052-239.546,167.052-239.546C802.107,266.1,707.8,757.8,707.8,757.8s-17.588,138.685-22.378,152.868-22,37.823-19.668,70.918,60.454,72.684,60.454,72.684,56.735,26.6,80.122,66c17.021,29.061,127.59,68.46,190.061,96.575Z" transform="translate(1154.634 1200.913)" opacity="0.1"/>
  <path id="Path_41" data-name="Path 41" d="M812.851,280.69a71.362,71.362,0,0,1-6.3,30.132,186.266,186.266,0,0,1-11.221,22.442,103.381,103.381,0,0,1-27.611,34.293c-14.562,10.4-32.969,13.3-50.431,17.525s-35.617,10.969-45.577,25.846a90.393,90.393,0,0,0-10.654,30.889,66.442,66.442,0,0,1-12.608,29.88,24.775,24.775,0,0,1-29.5,7.06,29.816,29.816,0,0,1-11.41-14.688c-7.186-16.2-9.014-34.167-11.914-51.629s-7-35.428-17.714-49.485-29.691-23.324-46.522-17.84a44.822,44.822,0,0,0-25.215,24.459,140.2,140.2,0,0,0-9.519,34.8q-11.725,64.173-27.674,127.59a11.721,11.721,0,0,1-2.08,4.791,9.079,9.079,0,0,1-6.3,2.647c-14.121,1.891-27.674-8.006-41.92-6.934a24.08,24.08,0,0,0-4.35.694,225.237,225.237,0,0,1,22.757-257.2l1.135-.315a67.958,67.958,0,0,0,25.215-15.886,266.126,266.126,0,0,0,25.216-29.187l5.043-6.3a287.52,287.52,0,0,1,49.17-46.712,50.433,50.433,0,0,1,16.768-9.078,49.674,49.674,0,0,1,15.885-.5,400.743,400.743,0,0,0,65.623,2.458,420.971,420.971,0,0,1,46.081-4.665c39.9,1.135,73.944,29.313,99.16,60.2C799.928,241.795,812.032,260.013,812.851,280.69Z" transform="translate(1438.027 532.297)" opacity="0.1"/>
  <path id="Path_42" data-name="Path 42" d="M439.053,321.325c-8.762,14.373-24.585,24.144-30.51,39.9-8.7,22.883,5.989,51.376-7.5,71.8-4.476,6.871-11.851,11.977-14.373,19.857-4.286,13.3,7.438,27.485,4.413,41.164s-21.055,25.215-16.264,38.58a25.216,25.216,0,0,0,13.869,12.608,54.215,54.215,0,0,0,31.519,7c17.209-2.837,30.006-19.731,47.468-20.992,14.184-1.009,27.737,8.825,41.857,7a9.455,9.455,0,0,0,6.3-2.71,10.905,10.905,0,0,0,2.08-4.791q15.886-63.354,27.737-127.59a137.427,137.427,0,0,1,9.456-34.8,45.2,45.2,0,0,1,25.215-24.459c16.831-5.421,35.743,3.782,46.522,17.84s14.877,32.024,17.777,49.485,4.728,35.428,11.851,51.629A30.132,30.132,0,0,0,667.947,477.6c9.456,5.484,22.19,1.135,29.439-7.06a65.751,65.751,0,0,0,12.607-29.943,90.026,90.026,0,0,1,10.654-30.826c9.96-14.877,28.178-21.622,45.577-25.846s35.743-7.186,50.431-17.588a103.754,103.754,0,0,0,27.611-34.23c9.33-16.264,18.029-33.915,17.272-52.637-.819-20.424-12.923-38.643-25.846-54.528-25.215-30.889-59.319-59.067-99.222-60.139a392.1,392.1,0,0,0-46.081,4.665,394.46,394.46,0,0,1-65.623-2.521,51.562,51.562,0,0,0-15.885.567,47.533,47.533,0,0,0-16.705,9.078,287.644,287.644,0,0,0-49.233,46.648,361.3,361.3,0,0,1-30.385,35.3,68.4,68.4,0,0,1-25.216,15.949c-6.3,1.765-12.608.5-18.6,2.458C450.148,282.808,447.69,307.078,439.053,321.325Z" transform="translate(1383.415 527.152)" fill="#965d7b"/>
  <path id="Path_43" data-name="Path 43" d="M593.973,292.347c-50.431,9.267-92.225-31.519-115.36-61.273A247.2,247.2,0,0,1,459.26,202.58l173.1,32.654,7,1.324S671.2,278.226,593.973,292.347Z" transform="translate(1835.555 727.532)" fill="#1f1f1f" opacity="0.1"/>
  <g id="Group_2" data-name="Group 2" transform="translate(1757.12 800.379)" opacity="0.1">
    <path id="Path_44" data-name="Path 44" d="M381.24,234.537a52.507,52.507,0,0,0-3.656-24.207c0,.63-.567,1.261-.756,1.891-2.711,8.447.946,17.209,3.278,25.972A18.91,18.91,0,0,0,381.24,234.537Z" transform="translate(-363.864 -31.742)"/>
    <path id="Path_45" data-name="Path 45" d="M379.425,197.8a140.092,140.092,0,0,0,.5,26.161,140.448,140.448,0,0,0-.5-26.161Z" transform="translate(-347.045 -98.199)"/>
    <path id="Path_46" data-name="Path 46" d="M844.145,222.66a103.386,103.386,0,0,1-27.611,34.293c-14.562,10.4-32.906,13.3-50.431,17.525s-35.617,10.969-45.577,25.846a90.83,90.83,0,0,0-10.654,30.889,66,66,0,0,1-12.607,29.943c-7.25,8.2-19.983,12.608-29.439,7.06a30.132,30.132,0,0,1-11.473-14.751c-7.124-16.2-9.015-34.1-11.852-51.629s-7.06-35.428-17.777-49.485-29.691-23.324-46.522-17.84a45.009,45.009,0,0,0-25.215,24.459,137.4,137.4,0,0,0-9.456,34.8Q533.743,358,517.795,421.357a10.9,10.9,0,0,1-2.08,4.791,9.455,9.455,0,0,1-6.3,2.711c-14.121,1.828-27.674-8.006-41.858-7-17.462,1.261-30.258,18.155-47.468,20.929a53.268,53.268,0,0,1-31.519-7A33.726,33.726,0,0,1,377.03,427.6a17.019,17.019,0,0,0-2.332,14.688,24.584,24.584,0,0,0,13.868,12.608,53.268,53.268,0,0,0,31.52,7c17.209-2.774,30.006-19.668,47.468-20.929,14.184-1.009,27.737,8.825,41.858,7a9.456,9.456,0,0,0,6.3-2.71,10.9,10.9,0,0,0,2.08-4.791q15.885-63.039,27.737-127.59a137.42,137.42,0,0,1,9.456-34.8A45.009,45.009,0,0,1,580.2,253.612c16.831-5.484,35.743,3.782,46.522,17.84S641.6,303.475,644.5,320.937s4.728,35.427,11.851,51.629a30.132,30.132,0,0,0,11.473,14.751c9.456,5.484,22.189,1.135,29.439-7.06a66,66,0,0,0,12.608-29.943,90.83,90.83,0,0,1,10.654-30.889c9.96-14.877,28.178-21.559,45.577-25.846s35.743-7.123,50.431-17.525a103.379,103.379,0,0,0,27.611-34.293c9.33-16.2,18.029-33.852,17.272-52.574a67.7,67.7,0,0,0-.756-7.186,123.875,123.875,0,0,1-16.516,40.66Z" transform="translate(-373.964 -182)"/>
  </g>
  <path id="Path_47" data-name="Path 47" d="M782.078,285.911a222.715,222.715,0,0,1,28.052,93.612C753.963,348,701.136,313.4,674.471,301.355c-46.459-20.992-220.194-17.84-285.5-15.886A220.184,220.184,0,0,1,412.8,251.05a228.067,228.067,0,0,1,52.007-45.514,225.488,225.488,0,0,1,317.588,80.248Z" transform="translate(1462.748 557.019)" opacity="0.1"/>
  <path id="Path_48" data-name="Path 48" d="M609.733,265.618c-30.321,9.33-79.807-8.7-131.12-34.545A247.2,247.2,0,0,1,459.26,202.58l173.1,32.654C643.837,243.051,646.737,254.208,609.733,265.618Z" transform="translate(1835.555 727.532)" opacity="0.1"/>
  <path id="Path_49" data-name="Path 49" d="M619.669,154.321s-165.476-9.456-212,80.374l-7.5,79.618-12.608-1.387-2.521,54.15s252.91-11.032,310.465,14.94S931.9,538.855,1003.574,516.792s-6.3-42.551-6.3-42.551-98.655-41.795-98.655-74.575S874.156,193.72,619.669,154.321Z" transform="translate(1441.904 470.055)" fill="#1f1f1f"/>
  <path id="Path_50" data-name="Path 50" d="M371.63,622.28s105.59,102.438,151.292,94.558C522.922,716.838,393.693,705.806,371.63,622.28Z" transform="translate(1370.779 2953.557)" opacity="0.1"/>
  <path id="Path_51" data-name="Path 51" d="M368.13,629.81s9.456,52.7,34.671,47.531S368.13,629.81,368.13,629.81Z" transform="translate(1352.216 2993.495)" opacity="0.1"/>
  <path id="Path_52" data-name="Path 52" d="M501.653,769.53S351.748,886.151,377.026,889.3,501.653,769.53,501.653,769.53Z" transform="translate(1384.169 3734.549)" opacity="0.1"/>
  <path id="Path_54" data-name="Path 54" d="M330.96,413.787l485.4-78.987V794.351L355.167,770.207Z" transform="translate(1756.387 1774.708)" fill="#1f1f1f"/>
  <path id="Path_56" data-name="Path 56" d="M407.96,334.8l582.1,43.56L957.845,778.276,407.96,794.351Z" transform="translate(2161.783 1774.708)" fill="#1f1f1f"/>
  <path id="Path_57" data-name="Path 57" d="M586.926,312.55,407.96,452.811l582.1,43.56,95.125-143.539Z" transform="translate(2163.783 1657.697)" fill="#363636"/>
  <path id="Path_58" data-name="Path 58" d="M303.08,367.795l436.983-53.2,224.165,127.4-485.4,78.987Z" transform="translate(1607.515 1668.516)" fill="#363636"/>
  <path id="Path_59" data-name="Path 59" d="M922.766,387.675v628.3l-227.38-23.324-98.907-10.086-30.132-3.152L467.5,969.268,330.96,955.273V347.33l485.333,33.032Z" transform="translate(1755.387 1842.165)" fill="#1f1f1f"/>
  <path id="Path_61" data-name="Path 61" d="M900.528,341.71V954.444L718.284,989.431l-88.632,17.021L424.84,1045.787v-628.3Z" transform="translate(2247.312 1812.357)" fill="#1f1f1f"/>
  <path id="Path_63" data-name="Path 63" d="M303.08,479.585,478.831,347.33l591.805,40.345L983.517,534.428Z" transform="translate(1608.515 1842.165)" fill="#363636"/>
  <path id="Path_65" data-name="Path 65" d="M900.528,341.71,424.84,417.483,579.663,556.167l509.54-85.48Z" transform="translate(2247.312 1811.357)" fill="#363636"/>
  <path id="Path_66" data-name="Path 66" d="M545.962,557.909,457.33,574.93V444l83.022-20.929Z" transform="translate(2425.635 2243.878)" fill="#fff" opacity="0.1"/>
  <path id="Path_67" data-name="Path 67" d="M471.988,435.96v86.615L373.08,512.489V435.96Z" transform="translate(1978.785 2312.245)" fill="#fff" opacity="0.1"/>
  <path id="Path_68" data-name="Path 68" d="M451.464,440.29v46.081L352.62,476.222V440.29Z" transform="translate(1870.268 2335.21)" fill="#fff" opacity="0.1"/>
  <path id="Path_69" data-name="Path 69" d="M914.836,695.854c-67.766,86.678-291.553,26.792-291.553,26.792l-166.3-173.482L434.42,525.65l44.127-81.95s12.608,4.161,33.663,11.473C623.662,494.131,971.886,622.918,914.836,695.854Z" transform="translate(1703.807 2006.395)" opacity="0.1"/>
  <path id="Path_70" data-name="Path 70" d="M913.836,693.854c-67.766,86.678-291.553,26.792-291.553,26.792l-166.3-173.482L433.42,523.65l44.127-81.95s12.608,4.161,33.663,11.473C622.661,492.131,970.886,620.918,913.836,693.854Z" transform="translate(1698.504 1995.788)" fill="#efb7b9"/>
  <path id="Path_71" data-name="Path 71" d="M511.169,453.173c-9.2,26.476-32.591,65.686-55.222,93.99L433.38,523.65l44.127-81.95S490.178,445.861,511.169,453.173Z" transform="translate(1698.292 1995.788)" opacity="0.1"/>
  <path id="Path_72" data-name="Path 72" d="M498.945,288.909S333.469,351.948,331.893,528.455a2900.284,2900.284,0,0,0,18.912,340.408s-47.279,263.185,86.678,338.831S695.941,1346.38,695.941,1346.38s214.016,34.671,240.3,45.7,117.63-130.8,103.446-154.444-209.036-81.95-232.171-121.349-80.122-65.938-80.122-65.938S669.276,1010.7,666.943,977.6s14.814-56.735,19.668-70.918,22.442-152.868,22.442-152.868S803.106,261.8,498.945,288.909Z" transform="translate(1159.937 1179.677)" fill="#dce6f2"/>
  <path id="Path_73" data-name="Path 73" d="M544.887,380.7S321.1,405.915,338.436,484.714C338.436,484.714,423.474,405.222,544.887,380.7Z" transform="translate(1189.642 1672.254)" opacity="0.1"/>
  <path id="Path_74" data-name="Path 74" d="M460.034,385.7s-127.022,92.982-103.7,99.286S460.034,385.7,460.034,385.7Z" transform="translate(1274.495 1698.772)" opacity="0.1"/>
  <path id="Path_75" data-name="Path 75" d="M397.918,391.7s-36.247,65.182-15.76,61.778S397.918,391.7,397.918,391.7Z" transform="translate(1393.345 1730.595)" opacity="0.1"/>
</svg>
