<svg xmlns="http://www.w3.org/2000/svg" xmlns:xlink="http://www.w3.org/1999/xlink" width="518.751" height="648.261" viewBox="0 0 518.751 648.261">
  <defs>
    <clipPath id="clip-path">
      <rect x="-2" y="-3" width="518.751" height="648.261" fill="none"/>
    </clipPath>
  </defs>
  <g id="Scroll_Group_4" data-name="Scroll Group 4" transform="translate(2 3)" clip-path="url(#clip-path)" style="isolation: isolate">
    <g id="Component_61_2" data-name="Component 61 – 2" transform="translate(5.384 6.326)">
      <path id="Path_5" data-name="Path 5" d="M415.271,3720.617V3695.1l-25.2-29.237L375.257,3623.2l-12.184-37.5,21.738-44.029,11.809-56.442,38.586-41.789,38.963,19.619,56.376-9.95,43.1-38.5,54.9-27.827,30.535-78.832,42.74-18.656,40.4-54.344h36.361l49.055-9.585,8.525,36.476h38.166l20.98-43.365h21.476L943,3197.959l19.127,14.683,7.976,31.269,36.757,22.867,11.966,34.085-11.966,28.461,17.162,5.262,22.9-12.009,21,6.747,24.153-40.029,34.344-9.162,28.153-18.291,33.472,8.115,32.452-8.115,33.759,27.453,38.689-9.162,12.845-26.629h26.043l58.612,3.112,34.07-3.112,42.42,16.452,33.354,30.906,14.179,28.461,44.977,19.649,35.941,11.942,29.88,9.138-11.74,40.412-18.14,24.5-16.325,41.644-9.138,31.839-34.269,30.444-5.8,61.284h-39.893l-33.5,16.7-31.945-10.261-11.96-42.453-37.4-25.273-30.755,12.06-46.818,13.213-43.328-13.213-22.934-12.06-43.277,6.041-27.217,15.713-12.036,35.915-18.445,42.622-38.272,6.343-20.292,26.134-30.918,17.838-26.81-17.838-43.95-20.9-21.75,26.221-11.191,23.29-49.408,6.886H840.586l-41.6,11.474-9.171,32.056,15.58,38.84-33.034,19.891-53.447,3.312-48.418,7.918-57.308-7.918-47.054,7.918L521.363,3792.8l-32.935-42.112-34.96-20.138Z" transform="translate(-357.074 -3190.959)" fill="none" stroke="#d89c24" stroke-width="10"/>
      <path id="Path_4" data-name="Path 4" d="M415.271,3720.617V3695.1l-25.2-29.237L375.257,3623.2l-12.184-37.5,21.738-44.029,11.809-56.442,38.586-41.789,38.963,19.619,56.376-9.95,43.1-38.5,54.9-27.827,30.535-78.832,42.74-18.656,40.4-54.344h36.361l49.055-9.585,8.525,36.476h38.166l20.98-43.365h21.476L943,3197.959l19.127,14.683,7.976,31.269,36.757,22.867,11.966,34.085-11.966,28.461,17.162,5.262,22.9-12.009,21,6.747,24.153-40.029,34.344-9.162,28.153-18.291,33.472,8.115,32.452-8.115,33.759,27.453,38.689-9.162,12.845-26.629h26.043l58.612,3.112,34.07-3.112,42.42,16.452,33.354,30.906,14.179,28.461,44.977,19.649,35.941,11.942,29.88,9.138-11.74,40.412-18.14,24.5-16.325,41.644-9.138,31.839-34.269,30.444-5.8,61.284h-39.893l-33.5,16.7-31.945-10.261-11.96-42.453-37.4-25.273-30.755,12.06-46.818,13.213-43.328-13.213-22.934-12.06-43.277,6.041-27.217,15.713-12.036,35.915-18.445,42.622-38.272,6.343-20.292,26.134-30.918,17.838-26.81-17.838-43.95-20.9-21.75,26.221-11.191,23.29-49.408,6.886H840.586l-41.6,11.474-9.171,32.056,15.58,38.84-33.034,19.891-53.447,3.312-48.418,7.918-57.308-7.918-47.054,7.918L521.363,3792.8l-32.935-42.112-34.96-20.138Z" transform="translate(-363.074 -3197.959)" fill="none" stroke="#000" stroke-width="10"/>
    </g>
  </g>
</svg>
