<?xml version="1.0" encoding="utf-8"?>
<!-- Generator: Adobe Illustrator 19.0.0, SVG Export Plug-In . SVG Version: 6.00 Build 0)  -->
<svg version="1.1" id="Layer_1" xmlns="http://www.w3.org/2000/svg" xmlns:xlink="http://www.w3.org/1999/xlink" x="0px" y="0px"
	 viewBox="0 0 142.9 56" style="enable-background:new 0 0 142.9 56;" xml:space="preserve">
<style type="text/css">
	.st0{fill:#DCDBDB;}
	.st1{fill:none;stroke:#010101;stroke-width:0.5669;stroke-miterlimit:10;}
	.st2{fill:#010101;}
</style>
<g id="XMLID_28_">
	<path id="XMLID_36_" class="st0" d="M60.3,11.7c0,0-13.3,0-16.3,1S13.3,29,13.3,29L7,31.7V48h121.7V14.9L60.3,11.7z"/>
	<g id="XMLID_30_">
		<line id="XMLID_35_" class="st1" x1="12" y1="47.8" x2="123.7" y2="47.8"/>
		<g id="XMLID_33_">
			<polygon id="XMLID_34_" class="st2" points="13.1,49.5 7,47.8 13.1,46.2 			"/>
		</g>
		<g id="XMLID_31_">
			<polygon id="XMLID_32_" class="st2" points="122.6,49.5 128.7,47.8 122.6,46.2 			"/>
		</g>
	</g>
	<path id="XMLID_29_" d="M129.1,10.8l-72.1-2c0,0-15.5-0.3-26.4,6c-12,7-23.6,13-23.7,15.9c-0.1,2.5,5,4.7,8.7,1.7
		c3.7-3,19.6-18,30.7-18c9.5,0,79.9,1.7,81.5,5.3c1,2.1-0.2,17,0.5,19.7c0.7,2.5,2.3,3.3,3.5-1c1.7-6.4,4.2-35.3,4.3-36.3
		c0.2-1-1.7-1.8-3.5,0.7C131,5.2,130.8,9.3,129.1,10.8z"/>
</g>
<g id="XMLID_27_">
</g>
<g id="XMLID_37_">
</g>
<g id="XMLID_38_">
</g>
<g id="XMLID_39_">
</g>
<g id="XMLID_40_">
</g>
<g id="XMLID_41_">
</g>
</svg>
