<?xml version="1.0" encoding="utf-8"?>
<!-- Generator: Adobe Illustrator 19.0.0, SVG Export Plug-In . SVG Version: 6.00 Build 0)  -->
<svg version="1.1" id="Layer_1" xmlns="http://www.w3.org/2000/svg" xmlns:xlink="http://www.w3.org/1999/xlink" x="0px" y="0px"
	 viewBox="0 0 142.9 56" style="enable-background:new 0 0 142.9 56;" xml:space="preserve">
<style type="text/css">
	.st0{fill:#DCDBDB;}
	.st1{fill:none;stroke:#010101;stroke-width:0.5669;stroke-miterlimit:10;}
	.st2{fill:#010101;}
</style>
<g>
	<rect x="64" y="9.1" class="st0" width="15" height="45.2"/>
	<g>
		<line class="st1" x1="69" y1="54.3" x2="73.8" y2="54.3"/>
		<g>
			<polygon class="st2" points="70.1,56 63.9,54.3 70.1,52.7 			"/>
		</g>
		<g>
			<polygon class="st2" points="72.6,56 78.8,54.3 72.6,52.7 			"/>
		</g>
	</g>
	<path d="M109.3,0C95.8,0,79.6,4.1,76.5,4.8c-2.8,0.6-4.1,0.5-5,0.5l0,0c0,0,0,0,0,0c0,0,0,0,0,0l0,0c-0.9,0-2.2,0.1-5-0.5
		C63.3,4.1,47.1,0,33.7,0C18.5,0,0,3.9,0,3.9v5c4.4,0.8,5.7,9.8,5.7,9.8s2.2,12,7.1,17c4.9,5,11.4,7.5,24.1,7.5
		c10.9,0,14.4-2.4,18.8-7.2c2.4-2.6,7.7-12.5,9.6-19.9c0.8-3,3.3-4,6.2-4c2.5,0,5.4,1.1,6.2,4c2,7.3,7.2,17.3,9.6,19.9
		c4.4,4.8,7.8,7.2,18.8,7.2c12.8,0,19.3-2.5,24.1-7.5c4.9-5,7.1-17,7.1-17s1.2-9,5.7-9.8v-5C142.9,3.9,124.4,0,109.3,0z M59.6,23.7
		c0,0-4.2,12.7-12.5,15.6c-8.3,2.9-20.3,1.2-24.2,0C19.1,38,10.2,33.6,9.5,19.6c-0.7-14,6.8-15,10.7-15.9c3.9-0.8,16.5-1.8,27-0.1
		c9.3,1.5,11.8,2.7,13.7,6.8C62.9,14.5,59.6,23.7,59.6,23.7z M133.4,19.6c-0.7,14-9.6,18.5-13.4,19.7c-3.8,1.2-15.9,2.9-24.2,0
		c-8.3-2.9-12.5-15.6-12.5-15.6s-3.3-9.2-1.3-13.3c2-4.1,4.5-5.3,13.7-6.8c10.5-1.7,23.1-0.7,27,0.1C126.6,4.5,134.2,5.5,133.4,19.6
		z"/>
</g>
<g id="XMLID_27_">
</g>
<g id="XMLID_28_">
</g>
<g id="XMLID_29_">
</g>
<g id="XMLID_30_">
</g>
<g id="XMLID_31_">
</g>
<g id="XMLID_32_">
</g>
</svg>
