<?xml version="1.0" encoding="utf-8"?>
<!-- Generator: Adobe Illustrator 19.0.0, SVG Export Plug-In . SVG Version: 6.00 Build 0)  -->
<svg version="1.1" id="Layer_1" xmlns="http://www.w3.org/2000/svg" xmlns:xlink="http://www.w3.org/1999/xlink" x="0px" y="0px"
	 viewBox="0 0 142.9 56" style="enable-background:new 0 0 142.9 56;" xml:space="preserve">
<style type="text/css">
	.st0{fill:#DCDBDB;}
	.st1{fill:none;stroke:#010101;stroke-width:0.5669;stroke-miterlimit:10;}
	.st2{fill:#010101;}
</style>
<g id="XMLID_28_">
	<path id="XMLID_39_" class="st0" d="M119.1,2c0,0,11.9,1.3,13.9,4c2,2.7,2.9,7.5,3.3,9.5s-0.5,5.2-2.5,12.2s-3.2,7.7-7.7,10.7
		c-5.1,3.4-10.1,3.5-15.1,3.5s-12.1-0.5-15.1-1.5s-5.6-3.8-8.6-8.1c-3-4.3-5.9-12.5-6.9-17.9c-1-5.3-6.2-6.4,1.2-8.7
		c7.3-2.3,5.7-2.2,16.7-3.7C108.4,0.6,119.1,2,119.1,2z"/>
	<g id="XMLID_33_">
		<line id="XMLID_38_" class="st1" x1="108.3" y1="35.7" x2="108.3" y2="7.8"/>
		<g id="XMLID_36_">
			<polygon id="XMLID_37_" class="st2" points="110,34.5 108.3,40.7 106.7,34.5 			"/>
		</g>
		<g id="XMLID_34_">
			<polygon id="XMLID_35_" class="st2" points="110,8.9 108.3,2.8 106.7,8.9 			"/>
		</g>
	</g>
	<path id="XMLID_29_" d="M110.3,0C96.8,0,80.6,4.1,77.5,4.8c-2.8,0.6-4.1,0.5-5,0.5l0,0c0,0,0,0,0,0c0,0,0,0,0,0l0,0
		c-0.9,0-2.2,0.1-5-0.5C64.3,4.1,48.1,0,34.7,0C19.5,0,1,3.9,1,3.9v5c4.4,0.8,5.7,9.8,5.7,9.8s2.2,12,7.1,17
		c4.9,5,11.4,7.5,24.1,7.5c10.9,0,14.4-2.4,18.8-7.2c2.4-2.6,7.7-12.5,9.6-19.9c0.8-3,3.3-4,6.2-4c2.5,0,5.4,1.1,6.2,4
		c2,7.3,7.2,17.3,9.6,19.9c4.4,4.8,7.8,7.2,18.8,7.2c12.8,0,19.3-2.5,24.1-7.5c4.9-5,7.1-17,7.1-17s1.2-9,5.7-9.8v-5
		C143.9,3.9,125.4,0,110.3,0z M60.6,23.7c0,0-4.2,12.7-12.5,15.6c-8.3,2.9-20.3,1.2-24.2,0c-3.8-1.2-12.7-5.7-13.4-19.7
		c-0.7-14,6.8-15,10.7-15.9c3.9-0.8,16.5-1.8,27-0.1c9.3,1.5,11.8,2.7,13.7,6.8C63.9,14.5,60.6,23.7,60.6,23.7z M134.4,19.6
		c-0.7,14-9.6,18.5-13.4,19.7c-3.8,1.2-15.9,2.9-24.2,0c-8.3-2.9-12.5-15.6-12.5-15.6s-3.3-9.2-1.3-13.3c2-4.1,4.5-5.3,13.7-6.8
		c10.5-1.7,23.1-0.7,27,0.1C127.6,4.5,135.2,5.5,134.4,19.6z"/>
</g>
<g id="XMLID_27_">
</g>
<g id="XMLID_40_">
</g>
<g id="XMLID_41_">
</g>
<g id="XMLID_42_">
</g>
<g id="XMLID_43_">
</g>
<g id="XMLID_44_">
</g>
</svg>
