<?xml version="1.0" encoding="utf-8"?>
<!-- Generator: Adobe Illustrator 19.0.0, SVG Export Plug-In . SVG Version: 6.00 Build 0)  -->
<svg version="1.1" id="Layer_1" xmlns="http://www.w3.org/2000/svg" xmlns:xlink="http://www.w3.org/1999/xlink" x="0px" y="0px"
	 viewBox="0 0 142.9 56" style="enable-background:new 0 0 142.9 56;" xml:space="preserve">
<style type="text/css">
	.st0{fill:#DCDBDB;}
	.st1{fill:none;stroke:#010101;stroke-width:0.5669;stroke-miterlimit:10;}
	.st2{fill:#010101;}
</style>
<g id="XMLID_28_">
	<path id="XMLID_39_" class="st0" d="M24.8,2c0,0-11.9,1.3-13.9,4s-2.9,7.5-3.3,9.5c-0.3,2,0.5,5.2,2.5,12.2s3.2,7.7,7.7,10.7
		C23,41.8,28,41.9,33,41.9s12.1-0.5,15.1-1.5s5.6-3.8,8.6-8.1s5.9-12.5,6.9-17.9s6.2-6.4-1.2-8.7C55.1,3.4,56.7,3.5,45.7,2
		C35.5,0.6,24.8,2,24.8,2z"/>
	<g id="XMLID_33_">
		<line id="XMLID_38_" class="st1" x1="15" y1="20.4" x2="55" y2="20.4"/>
		<g id="XMLID_36_">
			<polygon id="XMLID_37_" class="st2" points="16.1,22 10,20.4 16.1,18.7 			"/>
		</g>
		<g id="XMLID_34_">
			<polygon id="XMLID_35_" class="st2" points="53.9,22 60,20.4 53.9,18.7 			"/>
		</g>
	</g>
	<path id="XMLID_29_" d="M109.3,0C95.8,0,79.6,4.1,76.5,4.8c-2.8,0.6-4.1,0.5-5,0.5l0,0c0,0,0,0,0,0s0,0,0,0l0,0
		c-0.9,0-2.2,0.1-5-0.5C63.3,4.1,47.1,0,33.7,0C18.5,0,0,3.9,0,3.9v5c4.4,0.8,5.7,9.8,5.7,9.8s2.2,12,7.1,17
		c4.9,5,11.4,7.5,24.1,7.5c10.9,0,14.4-2.4,18.8-7.2c2.4-2.6,7.7-12.5,9.6-19.9c0.8-3,3.3-4,6.2-4c2.5,0,5.4,1.1,6.2,4
		c2,7.3,7.2,17.3,9.6,19.9c4.4,4.8,7.8,7.2,18.8,7.2c12.8,0,19.3-2.5,24.1-7.5c4.9-5,7.1-17,7.1-17s1.2-9,5.7-9.8v-5
		C142.9,3.9,124.4,0,109.3,0z M59.6,23.7c0,0-4.2,12.7-12.5,15.6c-8.3,2.9-20.3,1.2-24.2,0C19.1,38,10.2,33.6,9.5,19.6
		c-0.7-14,6.8-15,10.7-15.9c3.9-0.8,16.5-1.8,27-0.1c9.3,1.5,11.8,2.7,13.7,6.8C62.9,14.5,59.6,23.7,59.6,23.7z M133.4,19.6
		c-0.7,14-9.6,18.5-13.4,19.7c-3.8,1.2-15.9,2.9-24.2,0c-8.3-2.9-12.5-15.6-12.5-15.6s-3.3-9.2-1.3-13.3c2-4.1,4.5-5.3,13.7-6.8
		c10.5-1.7,23.1-0.7,27,0.1C126.6,4.5,134.2,5.5,133.4,19.6z"/>
</g>
<g id="XMLID_27_">
</g>
<g id="XMLID_40_">
</g>
<g id="XMLID_41_">
</g>
<g id="XMLID_42_">
</g>
<g id="XMLID_43_">
</g>
<g id="XMLID_44_">
</g>
</svg>
