<svg xmlns="http://www.w3.org/2000/svg" width="92.899" height="59.134" viewBox="0 0 92.899 59.134">
  <g id="Group_379" data-name="Group 379" transform="translate(1.015 1.019)">
    <path id="Path_231" data-name="Path 231" d="M2125.405,382.311c-7.6-.216-3.706,4.479-3.706,4.479-.564,6.6-4.728,11.652-6.78,13.7a17.661,17.661,0,0,1-6.645,4.106,19.286,19.286,0,0,1-14.7-1.065c-6.562-3.151-9.573-12.809-9.98-15.545s-3.533-2.25-3.533-2.25l.061-5.111c3.469.334,7.707-2.349,11.037-3.672a30.2,30.2,0,0,1,14.038-2.437,26.582,26.582,0,0,1,11.822,4c1.216.743,2.05,1.523,3.506.825s4.97-.658,4.97-.658,3.517-.039,4.973.658,2.287-.083,3.506-.825a26.566,26.566,0,0,1,11.822-4,30.179,30.179,0,0,1,14.035,2.437c3.33,1.323,7.568,4.005,11.04,3.672l.059,5.111s-3.123-.487-3.53,2.25-3.418,12.394-9.98,15.545a19.285,19.285,0,0,1-14.7,1.065,17.66,17.66,0,0,1-6.645-4.106c-2.053-2.043-6.216-7.095-6.783-13.7,0,0,3.929-4.732-3.793-4.477Zm-38.579,6.453c.17,4.43,2.7,14.748,15.214,15.255s15.9-12.781,15.9-12.781,2.622-9.892-7.073-13.444S2086.379,377.279,2086.826,388.764Zm77.337,0c-.173,4.43-2.7,14.748-15.214,15.255s-15.9-12.781-15.9-12.781-2.625-9.892,7.073-13.444S2164.607,377.279,2164.163,388.764Z" transform="translate(-2080.059 -348.574)" fill="none" stroke="#000" stroke-linecap="round" stroke-linejoin="round" stroke-miterlimit="1.5" stroke-width="2.031" fill-rule="evenodd"/>
    <g id="Group_291" data-name="Group 291" transform="translate(0.001)">
      <path id="Path_232" data-name="Path 232" d="M2349.928,1566.1a18.97,18.97,0,0,0,6.94-2.066s1.77-17.271,9.682-23.148a10.9,10.9,0,0,1,10.124-1.3c3.828,1.35,5.207-.2,3.274-1.577-2.465-1.762-8.359-3.394-14.833-.454C2360.153,1540.152,2354.9,1550.233,2349.928,1566.1Z" transform="translate(-2349.928 -1535.935)" fill="none" stroke="#000" stroke-linecap="round" stroke-linejoin="round" stroke-miterlimit="1.5" stroke-width="2.031" fill-rule="evenodd"/>
    </g>
    <g id="Group_292" data-name="Group 292" transform="translate(90.868 30.161) rotate(180)">
      <path id="Path_233" data-name="Path 233" d="M0,0A18.967,18.967,0,0,1,6.94,2.066s1.77,17.271,9.682,23.148a10.9,10.9,0,0,0,10.124,1.3c3.828-1.35,5.207.2,3.274,1.577-2.465,1.762-8.359,3.394-14.833.454C10.225,25.945,4.973,15.864,0,0Z" transform="translate(0 0)" fill="none" stroke="#000" stroke-linecap="round" stroke-linejoin="round" stroke-miterlimit="1.5" stroke-width="2.031" fill-rule="evenodd"/>
    </g>
  </g>
</svg>
