<svg xmlns="http://www.w3.org/2000/svg" xmlns:xlink="http://www.w3.org/1999/xlink" width="100.204" height="71.005" viewBox="0 0 100.204 71.005">
  <defs>
    <clipPath id="clip-path">
      <path id="Path_25" data-name="Path 25" d="M2.824,2.591S-.743,10.431.141,12.523s3.1,3.339,14.032,3.406,13.389-.027,13.4-3.786S26.568,3.86,25.52,1.989C24.316-.159,4.353-1.354,2.824,2.591Z" fill="rgba(255,255,255,0.21)" clip-rule="evenodd"/>
    </clipPath>
  </defs>
  <g id="Group_373" data-name="Group 373" transform="translate(2.09 2.085)">
    <path id="Path_13" data-name="Path 13" d="M893.207,1096.7s-15.005,18.908,11.039,31.081" transform="translate(-888.906 -1061.632)" fill="none" stroke="#fff" stroke-linecap="round" stroke-linejoin="round" stroke-miterlimit="1.5" stroke-width="4.17" fill-rule="evenodd"/>
    <g id="Group_10" data-name="Group 10" transform="translate(96.023 66.149) rotate(180)">
      <path id="Path_14" data-name="Path 14" d="M4.3,31.081S-10.7,12.174,15.34,0H80.683" transform="translate(0 0)" fill="none" stroke="#fff" stroke-linecap="round" stroke-linejoin="round" stroke-miterlimit="1.5" stroke-width="4.17" fill-rule="evenodd"/>
    </g>
    <path id="Path_15" data-name="Path 15" d="M911.746,1145.03s3.837,5.655,9.319,6.275" transform="translate(-905.75 -1097.274)" fill="none" stroke="#fff" stroke-linecap="round" stroke-linejoin="round" stroke-miterlimit="1.5" stroke-width="4.17" fill-rule="evenodd"/>
    <g id="Group_11" data-name="Group 11" transform="translate(89.846 54.114) rotate(180)">
      <path id="Path_16" data-name="Path 16" d="M0,6.36S3.837.628,9.319,0" fill="none" stroke="#fff" stroke-linecap="round" stroke-linejoin="round" stroke-miterlimit="1.5" stroke-width="4.198" fill-rule="evenodd"/>
    </g>
    <path id="Path_17" data-name="Path 17" d="M947.336,1168.93l65.188.087" transform="translate(-931.996 -1114.9)" fill="none" stroke="#fff" stroke-linecap="round" stroke-linejoin="round" stroke-miterlimit="1.5" stroke-width="4.17" fill-rule="evenodd"/>
    <path id="Path_18" data-name="Path 18" d="M1201.043,989.877s10.422-1.664,9.485-9.572-6.792-17.155-14.888-17.164" transform="translate(-1115.112 -963.137)" fill="none" stroke="#fff" stroke-linecap="round" stroke-linejoin="round" stroke-miterlimit="1.5" stroke-width="4.17" fill-rule="evenodd"/>
    <g id="Group_12" data-name="Group 12" transform="translate(80.526 26.74) rotate(180)">
      <path id="Path_19" data-name="Path 19" d="M70.591,0s10.423,1.664,9.485,9.572S73.284,26.727,65.188,26.736,0,26.736,0,26.736" transform="translate(0)" fill="none" stroke="#fff" stroke-linecap="round" stroke-linejoin="round" stroke-miterlimit="1.5" stroke-width="4.17" fill-rule="evenodd"/>
    </g>
    <path id="Path_20" data-name="Path 20" d="M920.5,1019.922s1.619-2.791,20.871-2.7" transform="translate(-912.208 -1003.02)" fill="none" stroke="#fff" stroke-linecap="round" stroke-linejoin="round" stroke-miterlimit="1.5" stroke-width="4.17" fill-rule="evenodd"/>
    <g id="Group_13" data-name="Group 13" transform="translate(88.001 16.903) rotate(180)">
      <path id="Path_21" data-name="Path 21" d="M0,0S1.619,2.791,20.871,2.7H58.835" transform="translate(0 0)" fill="none" stroke="#fff" stroke-linecap="round" stroke-linejoin="round" stroke-miterlimit="1.5" stroke-width="4.17" fill-rule="evenodd"/>
    </g>
    <g id="Group_21" data-name="Group 21" transform="translate(12.596 29.494)">
      <g id="Group_14" data-name="Group 14">
        <path id="Path_22" data-name="Path 22" d="M1835.486,1365.381a6.772,6.772,0,0,0-1.9.106c-1.917.762-2.8,8.87-5.184,10.341s-7.872,2.028-12.262,1.887-10.351-.051-11.964-2.761-1.952-10.481-4.029-10.437l.033-4.845s22.455-.735,28.926.621c0,0,1.754.553,6.379.423,4.625.131,6.379-.423,6.379-.423,6.471-1.356,28.926-.621,28.926-.621l.033,4.845c-2.077-.045-2.414,7.727-4.029,10.437s-7.576,2.62-11.964,2.761-9.877-.415-12.262-1.887-3.267-9.579-5.185-10.341A6.77,6.77,0,0,0,1835.486,1365.381Z" transform="translate(-1800.148 -1359.472)" fill="none" stroke="#fff" stroke-linecap="round" stroke-linejoin="round" stroke-miterlimit="1.5" stroke-width="2.084" fill-rule="evenodd"/>
      </g>
      <g id="Group_15" data-name="Group 15" transform="translate(39.947 1.173)">
        <path id="Path_23" data-name="Path 23" d="M1955.131,1377.29s-3.567-7.839-2.683-9.932,3.1-3.339,14.032-3.406,13.389.027,13.4,3.786-1.009,8.284-2.056,10.155C1976.623,1380.041,1956.661,1381.235,1955.131,1377.29Z" transform="translate(-1952.307 -1363.94)" fill="rgba(255,255,255,0.21)" stroke="#fff" stroke-linecap="round" stroke-linejoin="round" stroke-miterlimit="1.5" stroke-width="2.084" fill-rule="evenodd"/>
      </g>
      <g id="Group_20" data-name="Group 20" transform="translate(30.987 17.102) rotate(180)">
        <path id="Path_24" data-name="Path 24" d="M2.824,2.591S-.743,10.431.141,12.523s3.1,3.339,14.032,3.406,13.389-.027,13.4-3.786S26.568,3.86,25.52,1.989C24.316-.159,4.353-1.354,2.824,2.591Z" transform="translate(0 0)" fill="rgba(255,255,255,0.21)" fill-rule="evenodd"/>
        <g id="Group_19" data-name="Group 19" transform="translate(0 0)" clip-path="url(#clip-path)">
          <g id="Group_18" data-name="Group 18" transform="matrix(-0.77, -0.638, 0.638, -0.77, 15.24, 24.996)">
            <g id="Group_16" data-name="Group 16" transform="translate(0 0)">
              <rect id="Rectangle_1" data-name="Rectangle 1" width="2.819" height="30.954" transform="matrix(-0.992, 0.128, -0.128, -0.992, 6.766, 30.699)" fill="rgba(255,255,255,0.21)"/>
            </g>
            <g id="Group_17" data-name="Group 17" transform="translate(5.647 1.313)">
              <rect id="Rectangle_2" data-name="Rectangle 2" width="4.6" height="31.186" transform="translate(8.638 30.919) rotate(172.486)" fill="rgba(255,255,255,0.21)"/>
            </g>
          </g>
        </g>
        <path id="Path_26" data-name="Path 26" d="M2.824,2.591S-.743,10.431.141,12.523s3.1,3.339,14.032,3.406,13.389-.027,13.4-3.786S26.568,3.86,25.52,1.989C24.316-.159,4.353-1.354,2.824,2.591Z" transform="translate(0 0)" fill="none" stroke="#fff" stroke-linecap="round" stroke-linejoin="round" stroke-miterlimit="1.5" stroke-width="2.084" fill-rule="evenodd"/>
      </g>
    </g>
  </g>
</svg>
