<svg xmlns="http://www.w3.org/2000/svg" width="55.787" height="16.41" viewBox="0 0 55.787 16.41">
  <g id="Component_7_2" data-name="Component 7 – 2" transform="translate(2.002 1.004)">
    <path id="Path_312" data-name="Path 312" d="M719.771,2282.332s7.54-4.778,12.465-4.9a62.949,62.949,0,0,1,7.732.243,15.109,15.109,0,0,1,2.787.543,5.506,5.506,0,0,0-1.318,1.807c-.961,2.671-2.635,8.337-6.161,10.229-4.621,2.48-10.007,1.5-11.735.484s-3.587-2.3-3.77-5.2S719.771,2282.332,719.771,2282.332Z" transform="translate(-690.925 -2277.41)" fill="none" stroke="#fff" stroke-width="2"/>
    <path id="Path_314" data-name="Path 314" d="M742.674,2282.171s-7.539-4.622-12.465-4.739a65,65,0,0,0-7.732.234,15.522,15.522,0,0,0-2.787.526,5.343,5.343,0,0,1,1.318,1.748c.961,2.584,2.635,8.064,6.161,9.895,4.621,2.4,10.007,1.453,11.735.468s3.587-2.223,3.77-5.031S742.674,2282.171,742.674,2282.171Z" transform="translate(-719.69 -2276.938)" fill="none" stroke="#fff" stroke-width="2"/>
    <path id="Path_313" data-name="Path 313" d="M791.151,2283.367a6.712,6.712,0,0,0,.383-4.045,3.1,3.1,0,0,0-2.831-1.546" transform="translate(-741.725 -2277.68)" fill="none" stroke="#fff" stroke-width="2"/>
    <path id="Path_315" data-name="Path 315" d="M789.282,2283.184s-.989-2.264-.383-3.913c.286-.783,1.383-1.4,2.831-1.5" transform="translate(-786.879 -2277.212)" fill="none" stroke="#fff" stroke-width="2"/>
    <path id="Path_316" data-name="Path 316" d="M.282,4.333S-1.648-2.1,4.6.711" transform="translate(25.653 3.045) rotate(40)" fill="none" stroke="#fff" stroke-width="2"/>
  </g>
</svg>
