<svg xmlns="http://www.w3.org/2000/svg" width="56.248" height="14.976" viewBox="0 0 56.248 14.976">
  <g id="Component_12_3" data-name="Component 12 – 3" transform="translate(1.009 1.001)">
    <path id="Path_329" data-name="Path 329" d="M924.106,2161.891s-.4-3.527,3.813-4.141,13.2-.665,15.6.255,4.215,2.709,3.111,7.055-5.218,5.214-8.379,5.214-9.684,0-11.691-1.687-2.459-6.186-2.459-6.186Z" transform="translate(-924.095 -2157.301)" fill="none" stroke="#000" stroke-width="2"/>
    <path id="Path_330" data-name="Path 330" d="M946.956,2161.891s.4-3.527-3.813-4.14-13.2-.665-15.6.255-4.215,2.71-3.111,7.055,5.218,5.215,8.379,5.215,9.684,0,11.691-1.687,2.459-6.186,2.459-6.186Z" transform="translate(-892.736 -2157.301)" fill="none" stroke="#000" stroke-width="2"/>
    <path id="Path_331" data-name="Path 331" d="M1029.117,2166.857a6.9,6.9,0,0,1,8.554,0" transform="translate(-1006.246 -2163.565)" fill="none" stroke="#000" stroke-width="2"/>
  </g>
</svg>
