<svg id="Component_10_2" data-name="Component 10 – 2" xmlns="http://www.w3.org/2000/svg" width="58.3" height="11.791" viewBox="0 0 58.3 11.791">
  <g id="Path_323" data-name="Path 323" fill="none">
    <path d="M1.929,0H23.345c1.066,0,2.541,2.011,2.541,3.052v4.7c0,1.042-1.476,3.186-2.541,3.186a79.2,79.2,0,0,1-10.756.853,76.9,76.9,0,0,1-10.66-.853A1.908,1.908,0,0,1,0,9.052V1.886A1.908,1.908,0,0,1,1.929,0Z" stroke="none"/>
    <path d="M 1.999998092651367 1.999996185302734 L 1.999998092651367 8.938222885131836 L 2.089008331298828 8.93825626373291 L 2.246267318725586 8.963466644287109 C 2.297887802124023 8.971735954284668 7.467397689819336 9.790816307067871 12.58956813812256 9.790816307067871 C 17.62441444396973 9.790816307067871 22.7948055267334 8.999646186828613 23.02578544616699 8.963848114013672 C 23.33277702331543 8.721362113952637 23.79852676391602 8.036760330200195 23.88669776916504 7.683724403381348 L 23.88669776916504 3.127997398376465 C 23.79852676391602 2.814231872558594 23.37848663330078 2.228076934814453 23.09019470214844 1.999996185302734 L 1.999998092651367 1.999996185302734 M 1.929357528686523 -3.814697265625e-06 L 23.34525871276855 -3.814697265625e-06 C 24.41081809997559 -3.814697265625e-06 25.88669776916504 2.010786056518555 25.88669776916504 3.052336692810059 L 25.88669776916504 7.752016067504883 C 25.88669776916504 8.793576240539551 24.41081809997559 10.93819618225098 23.34525871276855 10.93819618225098 C 23.34525871276855 10.93819618225098 17.94354820251465 11.79081630706787 12.58956813812256 11.79081630706787 C 7.235597610473633 11.79081630706787 1.929357528686523 10.93819618225098 1.929357528686523 10.93819618225098 C 0.8638076782226562 10.93819618225098 -1.9073486328125e-06 10.09385585784912 -1.9073486328125e-06 9.052306175231934 L -1.9073486328125e-06 1.885896682739258 C -1.9073486328125e-06 0.8443460464477539 0.8638076782226562 -3.814697265625e-06 1.929357528686523 -3.814697265625e-06 Z" stroke="none" fill="#fff"/>
  </g>
  <g id="Path_324" data-name="Path 324" transform="translate(32.413)" fill="none">
    <path d="M23.957,0H2.541C1.476,0,0,2.011,0,3.052v4.7c0,1.042,1.476,3.186,2.541,3.186a79.2,79.2,0,0,0,10.756.853,76.9,76.9,0,0,0,10.66-.853,1.908,1.908,0,0,0,1.929-1.886V1.886A1.908,1.908,0,0,0,23.957,0Z" stroke="none"/>
    <path d="M 2.796501159667969 1.999996185302734 C 2.508209228515625 2.228076934814453 2.088169097900391 2.814231872558594 1.999998092651367 3.127997398376465 L 1.999998092651367 7.683714389801025 C 2.088171005249023 8.036750793457031 2.553918838500977 8.721354484558105 2.860904693603516 8.963841438293457 C 3.097007751464844 9.000429153442383 8.26478385925293 9.790816307067871 13.29712772369385 9.790816307067871 C 18.41929817199707 9.790816307067871 23.58880805969238 8.971735954284668 23.64003753662109 8.963525772094727 L 23.79800796508789 8.938196182250977 L 23.88669776916504 8.938196182250977 L 23.88669776916504 1.999996185302734 L 2.796501159667969 1.999996185302734 M 2.541437149047852 -3.814697265625e-06 L 23.95733833312988 -3.814697265625e-06 C 25.02289772033691 -3.814697265625e-06 25.88669776916504 0.8443460464477539 25.88669776916504 1.885896682739258 L 25.88669776916504 9.052306175231934 C 25.88669776916504 10.09385585784912 25.02289772033691 10.93819618225098 23.95733833312988 10.93819618225098 C 23.95733833312988 10.93819618225098 18.65109825134277 11.79081630706787 13.29712772369385 11.79081630706787 C 7.943147659301758 11.79081630706787 2.541437149047852 10.93819618225098 2.541437149047852 10.93819618225098 C 1.47587776184082 10.93819618225098 -1.9073486328125e-06 8.79356575012207 -1.9073486328125e-06 7.752016067504883 L -1.9073486328125e-06 3.052336692810059 C -1.9073486328125e-06 2.010786056518555 1.47587776184082 -3.814697265625e-06 2.541437149047852 -3.814697265625e-06 Z" stroke="none" fill="#fff"/>
  </g>
  <path id="Path_325" data-name="Path 325" d="M622.526,2536.672s4.021-5.783,8.2,0" transform="translate(-597.515 -2532.574)" fill="none" stroke="#fff" stroke-width="2"/>
</svg>
