<svg id="Component_8_2" data-name="Component 8 – 2" xmlns="http://www.w3.org/2000/svg" width="56.189" height="22.646" viewBox="0 0 56.189 22.646">
  <g id="Path_317" data-name="Path 317" transform="translate(-0.004 0.185)" fill="none">
    <path d="M11.748-.094C21.469.8,25.1,6.068,25.027,11.373S18.236,22.46,11.748,22.46.854,17.488.119,11.373,2.028-.986,11.748-.094Z" stroke="none"/>
    <path d="M 9.95064640045166 1.820863723754883 C 7.151435852050781 1.820863723754883 5.063396453857422 2.574752807617188 3.744546890258789 4.061603546142578 C 1.836736679077148 6.212423324584961 1.898345947265625 9.416393280029297 2.104866027832031 11.13481330871582 C 2.419456481933594 13.75235366821289 3.515745162963867 16.11825370788574 5.19178581237793 17.79669380187988 C 6.931865692138672 19.53924369812012 9.19908618927002 20.46030426025391 11.748366355896 20.46030426025391 C 14.31562614440918 20.46030426025391 17.21407699584961 19.30797386169434 19.50173568725586 17.3778133392334 C 21.68101692199707 15.53909301757812 22.99895668029785 13.28357315063477 23.02722549438477 11.34430313110352 C 23.05076599121094 9.729683876037598 22.65834617614746 7.388933181762695 20.6551456451416 5.406843185424805 C 19.74140548706055 4.50273323059082 18.57004547119141 3.752883911132812 17.17361640930176 3.178142547607422 C 15.58591651916504 2.524673461914062 13.69906616210938 2.093994140625 11.5654764175415 1.898073196411133 C 11.00756645202637 1.846843719482422 10.46425628662109 1.820863723754883 9.95064640045166 1.820863723754883 M 9.950650215148926 -0.1791324615478516 C 10.5212926864624 -0.1791324615478516 11.11948299407959 -0.1512947082519531 11.748366355896 -0.09354591369628906 C 21.46876525878906 0.7990531921386719 25.10436630249023 6.068053245544434 25.02701568603516 11.37346363067627 C 24.94967651367188 16.67886352539062 18.23575592041016 22.46030426025391 11.748366355896 22.46030426025391 C 5.260965347290039 22.46030426025391 0.8540458679199219 17.48816299438477 0.1191558837890625 11.37346363067627 C -0.5681877136230469 5.654358863830566 1.701099395751953 -0.1791324615478516 9.950650215148926 -0.1791324615478516 Z" stroke="none" fill="#fff"/>
  </g>
  <g id="Path_318" data-name="Path 318" transform="translate(31.16 0.179)" fill="none">
    <path d="M13.284-.094C3.563.8-.072,6.068,0,11.373S6.8,22.46,13.284,22.46s10.894-4.972,11.629-11.087S23-.986,13.284-.094Z" stroke="none"/>
    <path d="M 15.08031558990479 1.820869445800781 C 14.56730556488037 1.820869445800781 14.02430534362793 1.84684944152832 13.46638584136963 1.898078918457031 C 11.33280563354492 2.093999862670898 9.445955276489258 2.524679183959961 7.858255386352539 3.178138732910156 C 6.461826324462891 3.752889633178711 5.29046630859375 4.502729415893555 4.376735687255859 5.406839370727539 C 2.37353515625 7.388919830322266 1.981105804443359 9.729680061340332 2.004646301269531 11.34429931640625 C 2.032915115356445 13.28355979919434 3.350854873657227 15.5390796661377 5.530136108398438 17.37779998779297 C 7.817794799804688 19.30796051025391 10.71624565124512 20.46030044555664 13.2835054397583 20.46030044555664 C 15.83277606964111 20.46030044555664 18.10000610351562 19.53923988342285 19.8400764465332 17.79668045043945 C 21.5161247253418 16.11824989318848 22.6124153137207 13.75234985351562 22.92700576782227 11.13479995727539 C 23.40812492370605 7.131609916687012 22.10631561279297 4.985170364379883 21.28750610351562 4.062000274658203 C 19.96865463256836 2.575069427490234 17.88052558898926 1.821039199829102 15.08066558837891 1.820869445800781 L 15.08031558990479 1.820869445800781 M 15.08123874664307 -0.1791286468505859 C 23.33078765869141 -0.1786308288574219 25.60005187988281 5.654354095458984 24.91271591186523 11.37344932556152 C 24.17782592773438 17.4881591796875 19.77089500427246 22.46030044555664 13.2835054397583 22.46030044555664 C 6.796115875244141 22.46030044555664 0.08219528198242188 16.6788501739502 0.004856109619140625 11.37344932556152 C -0.07248497009277344 6.068049430847168 3.563106536865234 0.7990493774414062 13.2835054397583 -0.09354019165039062 C 13.91238880157471 -0.1512889862060547 14.51059627532959 -0.1791629791259766 15.08123874664307 -0.1791286468505859 Z" stroke="none" fill="#fff"/>
  </g>
  <path id="Path_319" data-name="Path 319" d="M695.759,2356.653a32.611,32.611,0,0,0,6.824,1.188c2.38-.069,5.067-.1,6.964-1.516" transform="translate(-674.32 -2351.193)" fill="none" stroke="#fff" stroke-width="2"/>
  <path id="Path_320" data-name="Path 320" d="M700.521,2362.761s2.4-4.338,5.87-2.333a8.9,8.9,0,0,1,2.549,2.036" transform="translate(-676.721 -2352.527)" fill="none" stroke="#fff" stroke-width="2"/>
</svg>
