<svg id="Component_16_1" data-name="Component 16 – 1" xmlns="http://www.w3.org/2000/svg" width="447.328" height="160.92" viewBox="0 0 447.328 160.92">
  <path id="Path_345" data-name="Path 345" d="M-1104.553-777.016s52.971-18.052,102.8-16.816,96.525,21.763,96.525,21.763l-8.9,28.293s5.273-33.741-87.629-33.24-76.364,26.717-76.364,26.717v18.378h-20.71Z" transform="translate(1104.553 793.892)" fill="#fff"/>
  <path id="Path_346" data-name="Path 346" d="M-905.225-777.016s-52.971-18.052-102.8-16.816-96.525,21.763-96.525,21.763l8.9,28.293s-5.273-33.741,87.629-33.24,76.364,26.717,76.364,26.717v18.378h20.71Z" transform="translate(1352.553 793.892)" fill="#fff"/>
  <path id="Path_347" data-name="Path 347" d="M-908.213-769.658h53.228l4.94,10.838h-62.627Z" transform="translate(1104.553 793.892)" fill="#fff"/>
  <path id="Path_348" data-name="Path 348" d="M-1082.062-731.921s-9.648,95.491,79.1,93.93S-915-731.921-915-731.921v-26.31s-8.378-28.525-87.966-28.325-87.438,28.325-87.438,28.325Z" transform="translate(1104.553 793.892)" fill="none" stroke="#fff" stroke-width="10"/>
  <path id="Path_349" data-name="Path 349" d="M-923.344-731.921s9.648,95.491-79.1,93.93-87.966-93.93-87.966-93.93v-26.31s3.691-27.884,87.966-28.325S-915-758.231-915-758.231Z" transform="translate(1347.242 793.892)" fill="none" stroke="#fff" stroke-width="10"/>
</svg>
