<svg xmlns="http://www.w3.org/2000/svg" width="51.24" height="19.773" viewBox="0 0 51.24 19.773">
  <g id="Component_15_1" data-name="Component 15 – 1" transform="translate(1 1)">
    <g id="Group_313" data-name="Group 313">
      <path id="Path_247" data-name="Path 247" d="M2718.187,744.428c-1.279-.056-1.308.365-1.308.365-1.579,8.6-7.152,11.1-8.157,11.546a12.965,12.965,0,0,1-6.166.906,7.982,7.982,0,0,1-7.063-5.547,13.132,13.132,0,0,1-.832-5.154c.016-.83-1.034-.71-1.034-.71l0-1.527a4.568,4.568,0,0,0,1.536-1,10.264,10.264,0,0,1,3.009-2.325,16.521,16.521,0,0,1,6.309-1.31c1.626-.055,4.356-.156,4.356-.156l9.409,0,9.4,0s2.73.1,4.358.156a16.507,16.507,0,0,1,6.308,1.31,10.254,10.254,0,0,1,3.01,2.325,4.555,4.555,0,0,0,1.535,1l.006,1.527s-1.051-.121-1.036.71A13.054,13.054,0,0,1,2741,751.7a7.98,7.98,0,0,1-7.063,5.547,12.968,12.968,0,0,1-6.166-.906c-1-.446-6.579-2.949-8.157-11.546,0,0-.02-.435-1.361-.362Zm-6.092,8.024a19.723,19.723,0,0,0,2.832-5.708c.776-2.929.882-5.392-2.38-5.871a51.918,51.918,0,0,0-8.892-.136c-.97.082-6.16.308-7.6,3.784s.594,8.333,1.8,9.545a7.849,7.849,0,0,0,3.594,2.166C2702.419,756.43,2708.678,757.368,2712.1,752.452Zm12.3,0a19.723,19.723,0,0,1-2.832-5.708c-.776-2.929-.881-5.392,2.38-5.871a51.913,51.913,0,0,1,8.892-.136c.972.082,6.162.308,7.6,3.784s-.595,8.333-1.8,9.545a7.84,7.84,0,0,1-3.594,2.166C2734.073,756.43,2727.814,757.368,2724.394,752.452Zm-6.457-12.141c-.572,0-1.758,0-2.1-.007-.461-.006-.846.391-.434.643a2.4,2.4,0,0,1,1.127,1.741c.234,1.132.724.976.7.973s1.021,0,1.021,0,1.023,0,1.011,0,.47.159.7-.973a2.4,2.4,0,0,1,1.129-1.741c.41-.252.025-.649-.435-.643s-2.408.007-2.408.007Z" transform="translate(-2693.626 -739.516)" fill="rgba(255,255,255,0.21)" stroke="#fff" stroke-linecap="round" stroke-linejoin="round" stroke-miterlimit="1.5" stroke-width="2" fill-rule="evenodd"/>
    </g>
  </g>
</svg>
