<svg xmlns="http://www.w3.org/2000/svg" width="55.373" height="18.888" viewBox="0 0 55.373 18.888">
  <g id="Component_6_3" data-name="Component 6 – 3" transform="translate(0 1.019)">
    <path id="Path_309" data-name="Path 309" d="M479.67,2256.957v-5.091s-.095-2.665,3.134-2.569,16.333,0,16.333,0,2.611-.571.855,5.376-2.8,9.563-2.8,9.563-.427,1.951-4.558,1.9-10.635,0-10.635,0-2.231.285-2.326-3.568S479.67,2256.957,479.67,2256.957Z" transform="translate(-475.66 -2249.281)" fill="none" stroke="#000" stroke-width="2"/>
    <path id="Path_310" data-name="Path 310" d="M500.556,2256.957v-5.091s.095-2.665-3.134-2.569-16.333,0-16.333,0-2.611-.571-.855,5.376,2.8,9.563,2.8,9.563.427,1.951,4.558,1.9,10.635,0,10.635,0,2.231.285,2.326-3.568S500.556,2256.957,500.556,2256.957Z" transform="translate(-449.23 -2249.281)" fill="none" stroke="#000" stroke-width="2"/>
    <path id="Path_311" data-name="Path 311" d="M510.954,2206.406s3.456-5.258,7.16,0" transform="translate(-486.94 -2200.305)" fill="none" stroke="#000" stroke-width="2"/>
    <rect id="Rectangle_47" data-name="Rectangle 47" width="3.692" height="6.036" rx="1.846" transform="translate(51.681 2.191)"/>
    <rect id="Rectangle_48" data-name="Rectangle 48" width="3.692" height="6.036" rx="1.846" transform="translate(0 2.191)"/>
  </g>
</svg>
