<svg xmlns="http://www.w3.org/2000/svg" width="62.095" height="19.638" viewBox="0 0 62.095 19.638">
  <g id="Component_11_2" data-name="Component 11 – 2" transform="translate(0 0.116)">
    <g id="Path_326" data-name="Path 326" fill="none">
      <path d="M0,0H28.544L26.017,19.522H2.521Z" stroke="none"/>
      <path d="M 2.274850845336914 2.000003814697266 L 4.279073715209961 17.52164268493652 L 24.25891494750977 17.52164268493652 L 26.26810646057129 2.000003814697266 L 2.274850845336914 2.000003814697266 M 1.9073486328125e-06 3.814697265625e-06 L 28.54368019104004 3.814697265625e-06 L 26.01671028137207 19.52164268493652 L 2.520721435546875 19.52164268493652 L 1.9073486328125e-06 3.814697265625e-06 Z" stroke="none" fill="#fff"/>
    </g>
    <g id="Path_327" data-name="Path 327" transform="translate(33.551)" fill="none">
      <path d="M0,0H28.544L26.017,19.522H2.521Z" stroke="none"/>
      <path d="M 2.274850845336914 2.000003814697266 L 4.279073715209961 17.52164268493652 L 24.25891494750977 17.52164268493652 L 26.26810646057129 2.000003814697266 L 2.274850845336914 2.000003814697266 M 1.9073486328125e-06 3.814697265625e-06 L 28.54368019104004 3.814697265625e-06 L 26.01671028137207 19.52164268493652 L 2.520721435546875 19.52164268493652 L 1.9073486328125e-06 3.814697265625e-06 Z" stroke="none" fill="#fff"/>
    </g>
    <path id="Path_328" data-name="Path 328" d="M639.186,2588.974h6.922l-.174,2.27a5.59,5.59,0,0,0-6.985.088" transform="translate(-611.61 -2588.09)" fill="none" stroke="#fff" stroke-width="2"/>
  </g>
</svg>
