<svg xmlns="http://www.w3.org/2000/svg" width="118.574" height="75.267" viewBox="0 0 118.574 75.267">
  <g id="Component_21_1" data-name="Component 21 – 1" transform="translate(1.016 1.02)">
    <path id="Path_231" data-name="Path 231" d="M2138.218,384.538c-9.751-.277-4.752,5.745-4.752,5.745-.724,8.466-6.064,14.945-8.7,17.565a22.651,22.651,0,0,1-8.522,5.266,24.735,24.735,0,0,1-18.857-1.366c-8.416-4.041-12.277-16.428-12.8-19.937s-4.531-2.885-4.531-2.885l.079-6.555c4.448.428,9.884-3.012,14.155-4.709a38.732,38.732,0,0,1,18-3.125,34.092,34.092,0,0,1,15.163,5.136c1.56.953,2.629,1.953,4.5,1.059s6.375-.844,6.375-.844,4.51-.05,6.378.844,2.933-.106,4.5-1.059a34.071,34.071,0,0,1,15.163-5.136,38.706,38.706,0,0,1,18,3.125c4.271,1.7,9.706,5.137,14.159,4.709l.075,6.555s-4-.624-4.528,2.885-4.384,15.9-12.8,19.937a24.734,24.734,0,0,1-18.857,1.366,22.651,22.651,0,0,1-8.522-5.266c-2.633-2.62-7.972-9.1-8.7-17.565,0,0,5.039-6.069-4.865-5.741Zm-49.479,8.277c.219,5.682,3.462,18.915,19.512,19.565s20.387-16.393,20.387-16.393,3.363-12.687-9.072-17.242S2088.165,378.084,2088.738,392.814Zm99.188,0c-.222,5.682-3.462,18.915-19.512,19.565s-20.386-16.393-20.386-16.393-3.367-12.687,9.072-17.242S2188.5,378.084,2187.926,392.814Z" transform="translate(-2080.059 -341.268)" fill="none" stroke="#6a6a6a" stroke-linecap="round" stroke-linejoin="round" stroke-miterlimit="1.5" stroke-width="2.031" fill-rule="evenodd"/>
    <g id="Group_291" data-name="Group 291" transform="translate(0.002)">
      <path id="Path_232" data-name="Path 232" d="M2349.928,1574.619a24.327,24.327,0,0,0,8.9-2.65s2.271-22.151,12.418-29.688a13.979,13.979,0,0,1,12.985-1.665c4.91,1.732,6.678-.253,4.2-2.023-3.162-2.26-10.721-4.353-19.025-.582C2363.042,1541.344,2356.305,1554.273,2349.928,1574.619Z" transform="translate(-2349.928 -1535.935)" fill="none" stroke="#6a6a6a" stroke-linecap="round" stroke-linejoin="round" stroke-miterlimit="1.5" stroke-width="2.031" fill-rule="evenodd"/>
    </g>
    <g id="Group_292" data-name="Group 292" transform="translate(116.543 38.684) rotate(180)">
      <path id="Path_233" data-name="Path 233" d="M0,0A24.326,24.326,0,0,1,8.9,2.65S11.172,24.8,21.319,32.338A13.98,13.98,0,0,0,34.3,34c4.91-1.732,6.678.253,4.2,2.023-3.162,2.26-10.721,4.353-19.024.582C13.114,33.275,6.378,20.346,0,0Z" transform="translate(0 0)" fill="none" stroke="#6a6a6a" stroke-linecap="round" stroke-linejoin="round" stroke-miterlimit="1.5" stroke-width="2.031" fill-rule="evenodd"/>
    </g>
  </g>
</svg>
