<svg xmlns="http://www.w3.org/2000/svg" width="114.849" height="85.201" viewBox="0 0 114.849 85.201">
  <g id="Component_20_1" data-name="Component 20 – 1" transform="translate(0.535)">
    <path id="Path_339" data-name="Path 339" d="M1315.188,812.966s1.34,33.65,10.869,41.393c6.985,5.675,19.73,12.151,35,14.006a64.865,64.865,0,0,0,16.814-.159c22.036-3.127,37.075-7.742,45.711-27.992s11.316-42.733-26.206-45.413-53.155-2.978-61.345,0-16.269,6.5-18.771,10.3A13.172,13.172,0,0,0,1315.188,812.966Z" transform="translate(-1315.16 -784.141)" fill="#efefef" stroke="#707070" stroke-width="1"/>
    <path id="Path_343" data-name="Path 343" d="M1,12.856,17.844,4.292l1.384,79.4L.752,83.895Z" transform="translate(48.957 -4.092) rotate(30)" fill="#c9c9c9" opacity="0.13"/>
    <path id="Path_344" data-name="Path 344" d="M1.591,19.117,7.7,15.2,7.045,77.157,1.923,72.18Z" transform="translate(38.349 -8.092) rotate(30)" fill="#c9c9c9" opacity="0.13"/>
    <line id="Line_4" data-name="Line 4" x2="22.15" transform="translate(65.463 42.332)" fill="none"/>
  </g>
</svg>
