<svg id="Component_2_1" data-name="Component 2 – 1" xmlns="http://www.w3.org/2000/svg" width="130.949" height="113.401" viewBox="0 0 130.949 113.401">
  <path id="Path_296" data-name="Path 296" d="M1315.188,812.966s1.34,33.65,10.869,41.393c6.985,5.675,19.73,12.151,35,14.006a64.865,64.865,0,0,0,16.814-.159c22.036-3.127,37.075-7.742,45.711-27.992s11.316-42.733-26.206-45.413-53.155-2.978-61.345,0-16.269,6.5-18.771,10.3A13.172,13.172,0,0,0,1315.188,812.966Z" transform="translate(-1309.884 -767.153)" fill="#363636" stroke="#707070" stroke-width="1"/>
  <rect id="Rectangle_44" data-name="Rectangle 44" width="20" height="87.251" transform="translate(56.233 13.895) rotate(30)" fill="#fff" opacity="0.13"/>
  <rect id="Rectangle_43" data-name="Rectangle 43" width="8" height="87.251" transform="translate(43.626 8.895) rotate(30)" fill="#fff" opacity="0.13"/>
  <path id="Path_297" data-name="Path 297" d="M1315.188,812.966s1.34,33.65,10.869,41.393c6.985,5.675,19.73,12.151,35,14.006a64.865,64.865,0,0,0,16.814-.159c22.036-3.127,37.075-7.742,45.711-27.992s11.316-42.733-26.206-45.413-53.155-2.978-61.345,0-16.269,6.5-18.771,10.3A13.172,13.172,0,0,0,1315.188,812.966Z" transform="translate(-1298.525 -755.94)" fill="#363636" stroke="#707070" stroke-width="1" opacity="0.32"/>
  <path id="Icon_metro-sun" data-name="Icon metro-sun" d="M33.8,17.9A15.259,15.259,0,1,0,49.06,33.158,15.277,15.277,0,0,0,33.8,17.9Zm0,26.158a10.9,10.9,0,1,1,10.9-10.9A10.9,10.9,0,0,1,33.8,44.057Zm0-30.518a2.18,2.18,0,0,0,2.18-2.18V7a2.18,2.18,0,1,0-4.36,0v4.36A2.18,2.18,0,0,0,33.8,13.539Zm0,39.237a2.18,2.18,0,0,0-2.18,2.18v4.36a2.18,2.18,0,0,0,4.36,0v-4.36A2.18,2.18,0,0,0,33.8,52.777ZM50.754,19.284,53.837,16.2a2.18,2.18,0,0,0-3.082-3.082L47.672,16.2a2.18,2.18,0,1,0,3.082,3.082ZM16.847,47.032l-3.082,3.082A2.18,2.18,0,0,0,16.847,53.2l3.082-3.082a2.18,2.18,0,0,0-3.082-3.082ZM14.182,33.158A2.18,2.18,0,0,0,12,30.978H7.643a2.18,2.18,0,1,0,0,4.36H12A2.18,2.18,0,0,0,14.182,33.158Zm45.777-2.18H55.6a2.18,2.18,0,1,0,0,4.36h4.36a2.18,2.18,0,0,0,0-4.36ZM16.844,19.284A2.18,2.18,0,0,0,19.927,16.2l-3.082-3.082A2.18,2.18,0,1,0,13.762,16.2ZM50.757,47.029a2.18,2.18,0,1,0-3.082,3.082l3.082,3.082a2.18,2.18,0,0,0,3.082-3.082Z" transform="translate(68.091 -4.82)" fill="#ebac01"/>
</svg>
