<svg xmlns="http://www.w3.org/2000/svg" xmlns:xlink="http://www.w3.org/1999/xlink" width="93.731" height="62.073" viewBox="0 0 93.731 62.073">
  <defs>
    <clipPath id="clip-path">
      <path id="Path_245" data-name="Path 245" d="M2711.7,772.412c-2.314-2.181-4.424-8.237-4.387-12.96.059-7.517,4.99-9.545,7.739-10.609,2.308-.892,6.387-1.628,13.589-1.577s10.981.173,13.213,1.45,2.914,4.3,1.666,9.244a35.933,35.933,0,0,1-7.309,13.566,16.831,16.831,0,0,1-9.779,4.847C2716.529,777.76,2713.112,773.744,2711.7,772.412Z" transform="translate(-2707.308 -747.262)" fill="rgba(255,255,255,0.21)" clip-rule="evenodd"/>
    </clipPath>
  </defs>
  <g id="Group_371" data-name="Group 371" transform="translate(1.079 1.031)">
    <g id="Group_311" data-name="Group 311" transform="translate(3.593 28.943)">
      <path id="Path_244" data-name="Path 244" d="M2711.7,772.412c-2.314-2.181-4.424-8.237-4.387-12.96.059-7.517,4.99-9.545,7.739-10.609,2.308-.892,6.387-1.628,13.589-1.577s10.981.173,13.213,1.45,2.914,4.3,1.666,9.244a35.933,35.933,0,0,1-7.309,13.566,16.831,16.831,0,0,1-9.779,4.847C2716.529,777.76,2713.112,773.744,2711.7,772.412Z" transform="translate(-2707.308 -747.262)" fill="rgba(255,255,255,0.21)" fill-rule="evenodd"/>
      <g id="Group_310" data-name="Group 310" transform="translate(0 0)" clip-path="url(#clip-path)">
        <g id="Group_309" data-name="Group 309" transform="translate(-2.136 -7.09)">
          <g id="Group_307" data-name="Group 307" transform="translate(0 0)">
            <rect id="Rectangle_27" data-name="Rectangle 27" width="2.999" height="29.096" transform="matrix(0.807, 0.591, -0.591, 0.807, 17.2, 0)" fill="rgba(255,255,255,0.21)"/>
          </g>
          <g id="Group_308" data-name="Group 308" transform="translate(3.291 4.797)">
            <rect id="Rectangle_28" data-name="Rectangle 28" width="4.893" height="29.314" transform="matrix(0.808, 0.589, -0.589, 0.808, 17.269, 0)" fill="rgba(255,255,255,0.21)"/>
          </g>
        </g>
      </g>
    </g>
    <g id="Group_312" data-name="Group 312" transform="translate(87.862 58.341) rotate(180)">
      <path id="Path_246" data-name="Path 246" d="M4.388,4.248C2.074,6.429-.036,12.486,0,17.209.06,24.725,4.99,26.754,7.74,27.818c2.308.892,6.387,1.628,13.589,1.577s10.981-.173,13.213-1.45,2.913-4.3,1.666-9.244A35.933,35.933,0,0,0,28.9,5.135,16.83,16.83,0,0,0,19.119.288C9.222-1.1,5.8,2.916,4.388,4.248Z" transform="translate(0 0)" fill="rgba(255,255,255,0.21)" fill-rule="evenodd"/>
    </g>
    <g id="Group_313" data-name="Group 313" transform="translate(0.001 26.91)">
      <path id="Path_247" data-name="Path 247" d="M2739.3,748.651c-2.379-.1-2.433.68-2.433.68-2.936,15.986-13.3,20.642-15.17,21.471a24.109,24.109,0,0,1-11.468,1.684A14.843,14.843,0,0,1,2697.1,762.17a24.4,24.4,0,0,1-1.547-9.585c.028-1.544-1.924-1.319-1.924-1.319l.009-2.839a8.5,8.5,0,0,0,2.857-1.855,19.085,19.085,0,0,1,5.595-4.323c2.7-1.363,7.182-2.281,11.733-2.436,3.024-.1,8.1-.29,8.1-.29l17.5-.007,17.481.007s5.077.187,8.1.29c4.551.155,9.029,1.073,11.73,2.436a19.07,19.07,0,0,1,5.6,4.323,8.469,8.469,0,0,0,2.854,1.855l.011,2.839s-1.955-.224-1.927,1.319a24.283,24.283,0,0,1-1.547,9.585,14.841,14.841,0,0,1-13.136,10.316,24.116,24.116,0,0,1-11.468-1.684c-1.867-.829-12.234-5.485-15.17-21.471,0,0-.037-.809-2.532-.674Zm-11.329,14.922a36.68,36.68,0,0,0,5.267-10.616c1.443-5.448,1.641-10.027-4.427-10.918-5.482-.8-14.516-.423-16.536-.253-1.8.153-11.456.572-14.138,7.038s1.106,15.5,3.341,17.751a14.6,14.6,0,0,0,6.684,4.028C2709.978,770.971,2721.618,772.716,2727.974,763.573Zm22.873,0a36.681,36.681,0,0,1-5.267-10.616c-1.443-5.448-1.638-10.027,4.427-10.918,5.482-.8,14.519-.423,16.536-.253,1.808.153,11.459.572,14.138,7.038s-1.106,15.5-3.341,17.751a14.582,14.582,0,0,1-6.684,4.028C2768.845,770.971,2757.205,772.716,2750.847,763.573Zm-12.008-22.579c-1.063,0-3.27,0-3.915-.013-.857-.012-1.573.726-.806,1.2a4.456,4.456,0,0,1,2.1,3.237c.436,2.105,1.346,1.815,1.307,1.809-.023,0,1.9.005,1.9.005s1.9-.008,1.881-.005c-.04.006.874.3,1.307-1.809a4.459,4.459,0,0,1,2.1-3.237c.764-.469.048-1.207-.809-1.2s-4.478.013-4.478.013Z" transform="translate(-2693.626 -739.516)" fill="rgba(255,255,255,0.21)" stroke="#fff" stroke-linecap="round" stroke-linejoin="round" stroke-miterlimit="1.5" stroke-width="2.159" fill-rule="evenodd"/>
    </g>
    <g id="Group_314" data-name="Group 314" transform="translate(0)">
      <path id="Path_248" data-name="Path 248" d="M2560.176,1464.439c2.6-1.52,2.868-3.387,7.117-5.218,0,0,2.7-14.478,12.722-21.771,2.01-1.462,6.185-2.69,11.017-1.219,4.163,1.27,5.655-.171,3.563-1.48-2.79-1.744-9.913-3.962-16.144-.424C2572.609,1436.874,2565.436,1449.586,2560.176,1464.439Z" transform="translate(-2560.176 -1432.445)" fill="rgba(255,255,255,0.21)" stroke="#fff" stroke-linecap="round" stroke-linejoin="round" stroke-miterlimit="1.5" stroke-width="2.052" fill-rule="evenodd"/>
    </g>
    <g id="Group_315" data-name="Group 315" transform="translate(91.576 31.994) rotate(180)">
      <path id="Path_249" data-name="Path 249" d="M0,0C2.6,1.52,2.868,3.387,7.117,5.217c0,0,2.7,14.478,12.723,21.771,2.01,1.462,6.185,2.69,11.016,1.219,4.163-1.27,5.655.171,3.563,1.48-2.79,1.745-9.913,3.962-16.144.424C12.433,27.565,5.26,14.853,0,0Z" transform="translate(0 0)" fill="rgba(255,255,255,0.21)" stroke="#fff" stroke-linecap="round" stroke-linejoin="round" stroke-miterlimit="1.5" stroke-width="2.052" fill-rule="evenodd"/>
    </g>
  </g>
</svg>
