<svg xmlns="http://www.w3.org/2000/svg" width="99.014" height="69.276" viewBox="0 0 99.014 69.276">
  <g id="Group_376" data-name="Group 376" transform="translate(1.342 1.357)">
    <g id="Group_336" data-name="Group 336" transform="translate(26.317 33.918)">
      <path id="Path_262" data-name="Path 262" d="M3053.37,1166.22s-.39,9.065,9.279,17.629,22.064,9.216,30.617,8.778,17.462-4.139,22.643-10.635,6.718-11.445,7.045-15.772C3122.954,1166.22,3092.144,1185.675,3053.37,1166.22Z" transform="translate(-3053.368 -1160.487)" fill="rgba(255,255,255,0.21)" stroke="#000" stroke-linecap="round" stroke-linejoin="round" stroke-miterlimit="1.5" stroke-width="3.537" fill-rule="evenodd"/>
      <path id="Path_263" data-name="Path 263" d="M3053.376,1150.116s32.7-12.9,69.584,0C3122.96,1150.116,3094.864,1169.78,3053.376,1150.116Z" transform="translate(-3053.374 -1144.383)" fill="rgba(255,255,255,0.21)" stroke="#000" stroke-linecap="round" stroke-linejoin="round" stroke-miterlimit="1.5" stroke-width="3.537" fill-rule="evenodd"/>
    </g>
    <g id="Group_337" data-name="Group 337" transform="translate(0 0)">
      <path id="Path_264" data-name="Path 264" d="M2310.043,882.31s-.295,6.858,7.02,13.337,16.693,6.973,23.163,6.641,13.211-3.132,17.131-8.046,5.083-8.659,5.33-11.932C2362.688,882.31,2339.377,897.029,2310.043,882.31Z" transform="translate(-2310.042 -877.973)" fill="rgba(255,255,255,0.21)" stroke="#000" stroke-linecap="round" stroke-linejoin="round" stroke-miterlimit="1.5" stroke-width="2.676" fill-rule="evenodd"/>
      <path id="Path_265" data-name="Path 265" d="M2310.048,870.126s24.742-9.759,52.644,0C2362.692,870.126,2341.436,885,2310.048,870.126Z" transform="translate(-2310.047 -865.789)" fill="rgba(255,255,255,0.21)" stroke="#000" stroke-linecap="round" stroke-linejoin="round" stroke-miterlimit="1.5" stroke-width="2.676" fill-rule="evenodd"/>
    </g>
  </g>
</svg>
