<svg xmlns="http://www.w3.org/2000/svg" xmlns:xlink="http://www.w3.org/1999/xlink" width="92.914" height="56.708" viewBox="0 0 92.914 56.708">
  <defs>
    <clipPath id="clip-path">
      <path id="Path_120" data-name="Path 120" d="M2197.709,1462.469s-.891,5.164-.141,8.467a21.681,21.681,0,0,0,2.257,6.529c.658.908,1.489,1.169,3.922,1.994s14.332,3.97,17.529,4.4c2.956.395,6.556.678,9.252-3.918.219-.371-.677.567-.081-1.8.782-3.1,2.247-5.125,3.649-7.7,1.586-2.923,3.042-6.335,2.52-8.746,0,0-.72-.75-6.32-1.472a95.91,95.91,0,0,0-15.518-.916,52.49,52.49,0,0,0-14.554,2.044C2198.383,1461.906,2197.779,1462.221,2197.709,1462.469Z" transform="translate(-2197.268 -1459.27)" fill="rgba(255,255,255,0.21)" clip-rule="evenodd"/>
    </clipPath>
  </defs>
  <g id="Group_370" data-name="Group 370" transform="translate(1.022 1.026)">
    <g id="Group_152" data-name="Group 152" transform="translate(88.593 54.787) rotate(180)">
      <path id="Path_118" data-name="Path 118" d="M.441,21.59S-.449,16.426.3,13.123A21.678,21.678,0,0,1,2.558,6.594C3.215,5.686,4.046,5.424,6.48,4.6S20.812.629,24.008.2c2.956-.395,6.556-.678,9.252,3.918.219.371-.677-.567-.081,1.8.782,3.1,2.247,5.125,3.649,7.7,1.586,2.923,3.042,6.335,2.52,8.746,0,0-.72.75-6.32,1.473a95.94,95.94,0,0,1-15.518.916A52.5,52.5,0,0,1,2.956,22.715C1.115,22.153.511,21.839.441,21.59Z" transform="translate(0 0)" fill="rgba(255,255,255,0.21)" stroke="#fff" stroke-linecap="round" stroke-linejoin="round" stroke-miterlimit="1.5" stroke-width="1.925" fill-rule="evenodd"/>
    </g>
    <g id="Group_157" data-name="Group 157" transform="translate(2.294 29.998)">
      <path id="Path_119" data-name="Path 119" d="M2197.709,1462.469s-.891,5.164-.141,8.467a21.681,21.681,0,0,0,2.257,6.529c.658.908,1.489,1.169,3.922,1.994s14.332,3.97,17.529,4.4c2.956.395,6.556.678,9.252-3.918.219-.371-.677.567-.081-1.8.782-3.1,2.247-5.125,3.649-7.7,1.586-2.923,3.042-6.335,2.52-8.746,0,0-.72-.75-6.32-1.472a95.91,95.91,0,0,0-15.518-.916,52.49,52.49,0,0,0-14.554,2.044C2198.383,1461.906,2197.779,1462.221,2197.709,1462.469Z" transform="translate(-2197.268 -1459.27)" fill="rgba(255,255,255,0.21)" fill-rule="evenodd"/>
      <g id="Group_156" data-name="Group 156" clip-path="url(#clip-path)">
        <g id="Group_155" data-name="Group 155" transform="translate(-3.36 -6.978)">
          <g id="Group_153" data-name="Group 153" transform="translate(0 0)">
            <rect id="Rectangle_11" data-name="Rectangle 11" width="2.999" height="29.096" transform="translate(17.2 0) rotate(36.238)" fill="rgba(255,255,255,0.21)"/>
          </g>
          <g id="Group_154" data-name="Group 154" transform="translate(3.291 4.797)">
            <rect id="Rectangle_12" data-name="Rectangle 12" width="4.893" height="29.314" transform="matrix(0.808, 0.589, -0.589, 0.808, 17.269, 0)" fill="rgba(255,255,255,0.21)"/>
          </g>
        </g>
      </g>
      <path id="Path_121" data-name="Path 121" d="M2197.709,1462.469s-.891,5.164-.141,8.467a21.681,21.681,0,0,0,2.257,6.529c.658.908,1.489,1.169,3.922,1.994s14.332,3.97,17.529,4.4c2.956.395,6.556.678,9.252-3.918.219-.371-.677.567-.081-1.8.782-3.1,2.247-5.125,3.649-7.7,1.586-2.923,3.042-6.335,2.52-8.746,0,0-.72-.75-6.32-1.472a95.91,95.91,0,0,0-15.518-.916,52.49,52.49,0,0,0-14.554,2.044C2198.383,1461.906,2197.779,1462.221,2197.709,1462.469Z" transform="translate(-2197.268 -1459.27)" fill="none" stroke="#fff" stroke-linecap="round" stroke-linejoin="round" stroke-miterlimit="1.5" stroke-width="1.925" fill-rule="evenodd"/>
    </g>
    <path id="Path_122" data-name="Path 122" d="M2234.392,1463.585a4.733,4.733,0,0,0-4.958,3.076c-1.483,3.606-3.7,6.97-4.718,7.28s-.6-2.611,2.861-8.613,3.1-8.08,3.126-9.446-26.48-5.277-38.982.441a19.263,19.263,0,0,0-.563,6.381s-1.746-4.123-1.494-5.7a4.048,4.048,0,0,1-.69-1.259c-.111-.535,1.5-1.54,3.237-2.094a73.288,73.288,0,0,1,18.308-2.483c7.636.135,21.562,1.42,23.884,1.451,2.32-.031,16.246-1.316,23.884-1.451a73.256,73.256,0,0,1,18.305,2.483c1.735.554,3.351,1.56,3.237,2.094a4.048,4.048,0,0,1-.69,1.259c.252,1.573-1.491,5.7-1.491,5.7a19.259,19.259,0,0,0-.563-6.381c-12.5-5.718-39.009-1.8-38.985-.441s-.336,3.445,3.126,9.446,3.879,8.92,2.861,8.613-3.235-3.674-4.718-7.28a4.734,4.734,0,0,0-4.967-3.076Z" transform="translate(-2188.968 -1423.295)" fill="rgba(255,255,255,0.21)" stroke="#fff" stroke-linecap="round" stroke-linejoin="round" stroke-miterlimit="1.5" stroke-width="1.925" fill-rule="evenodd"/>
    <g id="Group_158" data-name="Group 158" transform="translate(0 0)">
      <path id="Path_123" data-name="Path 123" d="M2540.491,1462.409a19.894,19.894,0,0,1,6.818-2.259s2.92-14.385,12.869-21.678c2-1.462,6.137-2.69,10.932-1.219,4.131,1.269,5.62-.183,3.536-1.481-2.662-1.654-9.026-3.186-16.02-.424C2553.271,1437.788,2545.86,1447.519,2540.491,1462.409Z" transform="translate(-2540.491 -1433.829)" fill="rgba(255,255,255,0.21)" stroke="#fff" stroke-linecap="round" stroke-linejoin="round" stroke-miterlimit="1.5" stroke-width="2.045" fill-rule="evenodd"/>
    </g>
    <g id="Group_159" data-name="Group 159" transform="translate(90.869 28.58) rotate(180)">
      <path id="Path_124" data-name="Path 124" d="M0,0A19.894,19.894,0,0,0,6.818,2.259S9.739,16.644,19.688,23.937c1.995,1.462,6.137,2.69,10.932,1.219,4.131-1.27,5.62.183,3.536,1.48-2.662,1.654-9.026,3.186-16.02.424C12.78,24.621,5.37,14.89,0,0Z" transform="translate(0 0)" fill="rgba(255,255,255,0.21)" stroke="#fff" stroke-linecap="round" stroke-linejoin="round" stroke-miterlimit="1.5" stroke-width="2.045" fill-rule="evenodd"/>
    </g>
  </g>
</svg>
